<svg width="248" height="122" viewBox="0 0 248 122" fill="none" xmlns="http://www.w3.org/2000/svg">
    <path d="M130.117 109.608C162.84 105.374 191.939 96.4213 212.545 85.2625C222.839 79.6882 231.158 73.4859 236.729 66.919C242.3 60.3509 245.326 53.1544 244.372 45.7796C243.418 38.4049 238.661 32.2153 231.601 27.2813C224.543 22.3481 214.919 18.467 203.546 15.6957C180.778 10.1481 150.358 8.89458 117.636 13.1278C84.9132 17.361 55.8143 26.3142 35.2076 37.473C24.9136 43.0473 16.5945 49.2495 11.024 55.8165C5.45253 62.3845 2.42648 69.5811 3.38052 76.9558C4.33456 84.3306 9.09233 90.5202 16.1518 95.4542C23.21 100.387 32.8336 104.268 44.2072 107.04C66.9751 112.587 97.3945 113.841 130.117 109.608Z" stroke="#6153E1" stroke-width="6"/>
    <path d="M136.968 108.547C167.105 99.5457 209.541 84.2722 229.033 60.4532" stroke="#6153E1" stroke-width="6"/>
</svg>
