<svg width="93" height="35" viewBox="0 0 93 35" fill="none" xmlns="http://www.w3.org/2000/svg">
    <path d="M7.56285 22.2449C5.79304 22.2449 4.2496 21.9774 2.93253 21.4424C1.63604 20.9073 0.658533 20.1767 0 19.2507L2.56211 16.8738C3.17948 17.5529 3.89975 18.0879 4.72292 18.479C5.56667 18.8494 6.5236 19.0346 7.59372 19.0346C8.4992 19.0346 9.20918 18.9008 9.72366 18.6333C10.2381 18.3452 10.4954 17.913 10.4954 17.3368C10.4954 16.8841 10.3205 16.5754 9.97061 16.4107C9.62076 16.2255 9.13715 16.0815 8.51978 15.9786L5.95767 15.5773C5.2374 15.4744 4.56858 15.3201 3.9512 15.1143C3.33383 14.8879 2.79877 14.5895 2.34603 14.2191C1.89328 13.8486 1.53315 13.3959 1.26562 12.8608C0.99809 12.3258 0.864325 11.6775 0.864325 10.9161C0.864325 9.2492 1.50228 7.94242 2.77819 6.99578C4.0541 6.04913 5.84449 5.57581 8.14935 5.57581C9.71337 5.57581 11.0407 5.7919 12.1314 6.22406C13.2427 6.63564 14.1276 7.23244 14.7861 8.01444L12.5018 10.6074C12.0285 10.0929 11.4214 9.66078 10.6806 9.31093C9.93974 8.96109 9.04455 8.78616 7.99501 8.78616C6.2252 8.78616 5.3403 9.32122 5.3403 10.3913C5.3403 10.8647 5.51522 11.1939 5.86506 11.3791C6.21491 11.5438 6.69852 11.6775 7.3159 11.7804L9.84713 12.1817C10.5674 12.2846 11.2362 12.4493 11.8536 12.6756C12.471 12.8814 13.006 13.1695 13.4588 13.54C13.9321 13.9104 14.3025 14.3631 14.5701 14.8982C14.8376 15.4332 14.9713 16.0815 14.9713 16.8429C14.9713 18.5098 14.3231 19.8269 13.0266 20.7941C11.7507 21.7613 9.92945 22.2449 7.56285 22.2449Z" fill="#FFCA36"/>
    <path d="M19.4353 5.94624H24.0038V8.8479H24.2199C24.6109 7.90126 25.1768 7.11925 25.9177 6.50188C26.6585 5.8845 27.6669 5.57581 28.9428 5.57581C29.8277 5.57581 30.6303 5.74045 31.3506 6.06971C32.0914 6.39898 32.7191 6.90317 33.2336 7.58228C33.7687 8.2614 34.1802 9.12572 34.4683 10.1753C34.777 11.2248 34.9314 12.4698 34.9314 13.9104C34.9314 15.3509 34.777 16.596 34.4683 17.6455C34.1802 18.695 33.7687 19.5594 33.2336 20.2385C32.7191 20.9176 32.0914 21.4218 31.3506 21.751C30.6303 22.0803 29.8277 22.2449 28.9428 22.2449C27.6669 22.2449 26.6585 21.9465 25.9177 21.3497C25.1768 20.7324 24.6109 19.9401 24.2199 18.9729H24.0038V33.3538H23.7762C21.3788 33.3538 19.4353 31.4103 19.4353 29.0129V5.94624ZM26.9672 18.695C27.9962 18.695 28.7885 18.3863 29.3441 17.769C29.8998 17.131 30.1776 16.2564 30.1776 15.1451V12.6756C30.1776 11.5644 29.8998 10.7 29.3441 10.0827C28.7885 9.4447 27.9962 9.12572 26.9672 9.12572C26.1646 9.12572 25.465 9.32122 24.8682 9.71223C24.2919 10.1032 24.0038 10.7206 24.0038 11.5644V16.2564C24.0038 17.1001 24.2919 17.7175 24.8682 18.1085C25.465 18.4995 26.1646 18.695 26.9672 18.695Z" fill="#FFCA36"/>
    <path d="M46.0012 22.2449C44.7664 22.2449 43.6552 22.0597 42.6674 21.6893C41.6796 21.2983 40.8358 20.7427 40.1361 20.0224C39.457 19.3021 38.9323 18.4275 38.5618 17.3985C38.1914 16.3696 38.0062 15.2069 38.0062 13.9104C38.0062 12.6139 38.1914 11.4512 38.5618 10.4222C38.9323 9.39325 39.457 8.51863 40.1361 7.79836C40.8358 7.07809 41.6796 6.53274 42.6674 6.16232C43.6552 5.77132 44.7664 5.57581 46.0012 5.57581C47.2359 5.57581 48.3472 5.77132 49.335 6.16232C50.3228 6.53274 51.1563 7.07809 51.8354 7.79836C52.5351 8.51863 53.0701 9.39325 53.4406 10.4222C53.811 11.4512 53.9962 12.6139 53.9962 13.9104C53.9962 15.2069 53.811 16.3696 53.4406 17.3985C53.0701 18.4275 52.5351 19.3021 51.8354 20.0224C51.1563 20.7427 50.3228 21.2983 49.335 21.6893C48.3472 22.0597 47.2359 22.2449 46.0012 22.2449ZM46.0012 18.8494C47.0302 18.8494 47.8327 18.5304 48.409 17.8924C48.9852 17.2545 49.2733 16.349 49.2733 15.176V12.6448C49.2733 11.4717 48.9852 10.5663 48.409 9.92831C47.8327 9.29035 47.0302 8.97138 46.0012 8.97138C44.9722 8.97138 44.1697 9.29035 43.5934 9.92831C43.0172 10.5663 42.7291 11.4717 42.7291 12.6448V15.176C42.7291 16.349 43.0172 17.2545 43.5934 17.8924C44.1697 18.5304 44.9722 18.8494 46.0012 18.8494Z" fill="#FFCA36"/>
    <path d="M58.1514 18.3246H61.8248V9.49615H58.1514V5.94624H66.3934V10.4531H66.6095C66.7535 9.87686 66.949 9.32122 67.196 8.78616C67.4635 8.23053 67.7928 7.74692 68.1838 7.33533C68.5954 6.90317 69.0893 6.56361 69.6655 6.31666C70.2417 6.06971 70.9208 5.94624 71.7028 5.94624H73.2154V10.1444H69.8198C68.688 10.1444 67.8339 10.4839 67.2577 11.1631C66.6815 11.8216 66.3934 12.6345 66.3934 13.6017V18.3246H71.6411V21.8745H58.1514V18.3246Z" fill="#FFCA36"/>
    <path d="M85.4891 21.8745C83.8428 21.8745 82.6183 21.4424 81.8157 20.578C81.0131 19.7137 80.6118 18.6127 80.6118 17.2751V9.49615H76.2902V5.94624H79.0993C79.7784 5.94624 80.262 5.81247 80.5501 5.54494C80.8382 5.27741 80.9823 4.78351 80.9823 4.06324V0.328125H85.1804V5.94624H91.385V9.49615H85.1804V18.3246H91.385V21.8745H85.4891Z" fill="#FFCA36"/>
    <path d="M31.0481 26.8713C30.7265 26.8713 30.5014 26.807 30.3728 26.6784C30.2506 26.5434 30.1895 26.3826 30.1895 26.1961V25.9163C30.1895 25.7234 30.2506 25.5626 30.3728 25.434C30.5014 25.3054 30.7265 25.2411 31.0481 25.2411C31.3696 25.2411 31.5915 25.3054 31.7137 25.434C31.8423 25.5626 31.9066 25.7234 31.9066 25.9163V26.1961C31.9066 26.3826 31.8423 26.5434 31.7137 26.6784C31.5915 26.807 31.3696 26.8713 31.0481 26.8713ZM28.7522 31.3763H30.3342V28.6174H28.7522V27.508H31.7619V31.3763H33.2282V32.4856H28.7522V31.3763Z" fill="white"/>
    <path d="M35.8965 32.4856V27.508H37.3242V28.4148H37.382C37.4399 28.2733 37.5107 28.1415 37.5943 28.0193C37.6779 27.8971 37.7775 27.791 37.8933 27.7009C38.0155 27.6045 38.1538 27.5305 38.3081 27.4791C38.4689 27.4212 38.6489 27.3923 38.8483 27.3923C39.0862 27.3923 39.3049 27.4341 39.5043 27.5177C39.7036 27.5948 39.874 27.7138 40.0155 27.8746C40.157 28.0354 40.2663 28.2315 40.3435 28.463C40.4271 28.6945 40.4689 28.9614 40.4689 29.2637V32.4856H39.0412V29.4566C39.0412 28.8135 38.7615 28.492 38.202 28.492C38.0927 28.492 37.9833 28.508 37.874 28.5402C37.7711 28.5659 37.6779 28.6109 37.5943 28.6752C37.5107 28.7331 37.4431 28.8071 37.3917 28.8971C37.3467 28.9871 37.3242 29.0933 37.3242 29.2154V32.4856H35.8965Z" fill="white"/>
    <path d="M44.7385 32.4856L42.9539 27.508H44.4588L45.1051 29.6399L45.5778 31.2991H45.6549L46.1276 29.6399L46.7739 27.508H48.2209L46.4363 32.4856H44.7385Z" fill="white"/>
    <path d="M53.1465 32.6014C52.3105 32.6014 51.677 32.3698 51.2461 31.9068C50.8153 31.4438 50.5998 30.8135 50.5998 30.0161C50.5998 29.6109 50.6545 29.2476 50.7638 28.926C50.8796 28.5981 51.0404 28.3215 51.2461 28.0964C51.4584 27.8649 51.7124 27.6913 52.0082 27.5755C52.3105 27.4534 52.6481 27.3923 53.0211 27.3923C53.3941 27.3923 53.7285 27.4534 54.0243 27.5755C54.3202 27.6913 54.571 27.8585 54.7768 28.0772C54.9825 28.2958 55.1401 28.5627 55.2494 28.8778C55.3652 29.1865 55.4231 29.5338 55.4231 29.9196V30.3441H52.0179V30.4309C52.0179 30.7524 52.1175 31.0129 52.3169 31.2123C52.5163 31.4052 52.8089 31.5017 53.1947 31.5017C53.4906 31.5017 53.7446 31.447 53.9568 31.3377C54.169 31.2219 54.3523 31.0708 54.5067 30.8843L55.2784 31.7235C55.0854 31.9615 54.8153 32.1673 54.4681 32.3409C54.1208 32.5145 53.6803 32.6014 53.1465 32.6014ZM53.0307 28.4148C52.7221 28.4148 52.4745 28.5112 52.288 28.7042C52.1079 28.8907 52.0179 29.1447 52.0179 29.4662V29.5434H54.0243V29.4662C54.0243 29.1383 53.9343 28.881 53.7542 28.6945C53.5806 28.508 53.3394 28.4148 53.0307 28.4148Z" fill="white"/>
    <path d="M60.3776 32.6014C59.8245 32.6014 59.3422 32.5178 58.9306 32.3505C58.5255 32.1833 58.22 31.955 58.0142 31.6656L58.8149 30.9229C59.0078 31.1351 59.2329 31.3023 59.4901 31.4245C59.7538 31.5402 60.0528 31.5981 60.3872 31.5981C60.6702 31.5981 60.8921 31.5563 61.0529 31.4727C61.2136 31.3827 61.294 31.2476 61.294 31.0676C61.294 30.9261 61.2394 30.8296 61.13 30.7782C61.0207 30.7203 60.8696 30.6753 60.6766 30.6431L59.876 30.5177C59.6509 30.4856 59.4419 30.4373 59.249 30.373C59.056 30.3023 58.8888 30.209 58.7473 30.0933C58.6059 29.9775 58.4933 29.836 58.4097 29.6688C58.3261 29.5016 58.2843 29.299 58.2843 29.0611C58.2843 28.5402 58.4837 28.1318 58.8824 27.836C59.2811 27.5402 59.8406 27.3923 60.5609 27.3923C61.0496 27.3923 61.4644 27.4598 61.8053 27.5948C62.1526 27.7235 62.4291 27.91 62.6349 28.1543L61.921 28.9646C61.7731 28.8039 61.5834 28.6688 61.3519 28.5595C61.1204 28.4502 60.8406 28.3955 60.5127 28.3955C59.9596 28.3955 59.6831 28.5627 59.6831 28.8971C59.6831 29.045 59.7377 29.1479 59.847 29.2058C59.9564 29.2572 60.1075 29.299 60.3004 29.3312L61.0914 29.4566C61.3165 29.4888 61.5255 29.5402 61.7185 29.6109C61.9114 29.6753 62.0786 29.7653 62.2201 29.881C62.368 29.9968 62.4837 30.1383 62.5674 30.3055C62.651 30.4727 62.6928 30.6753 62.6928 30.9132C62.6928 31.4341 62.4902 31.8457 62.085 32.148C61.6863 32.4502 61.1172 32.6014 60.3776 32.6014Z" fill="white"/>
    <path d="M68.2454 32.4856C67.7309 32.4856 67.3482 32.3505 67.0974 32.0804C66.8466 31.8103 66.7212 31.4663 66.7212 31.0483V28.6174H65.3707V27.508H66.2485C66.4608 27.508 66.6119 27.4662 66.7019 27.3826C66.792 27.299 66.837 27.1447 66.837 26.9196V25.7524H68.1489V27.508H70.0878V28.6174H68.1489V31.3763H70.0878V32.4856H68.2454Z" fill="white"/>
    <path d="M75.5922 26.8713C75.2707 26.8713 75.0456 26.807 74.917 26.6784C74.7948 26.5434 74.7337 26.3826 74.7337 26.1961V25.9163C74.7337 25.7234 74.7948 25.5626 74.917 25.434C75.0456 25.3054 75.2707 25.2411 75.5922 25.2411C75.9138 25.2411 76.1356 25.3054 76.2578 25.434C76.3864 25.5626 76.4508 25.7234 76.4508 25.9163V26.1961C76.4508 26.3826 76.3864 26.5434 76.2578 26.6784C76.1356 26.807 75.9138 26.8713 75.5922 26.8713ZM73.2964 31.3763H74.8784V28.6174H73.2964V27.508H76.3061V31.3763H77.7723V32.4856H73.2964V31.3763Z" fill="white"/>
    <path d="M80.4406 32.4856V27.508H81.8683V28.4148H81.9262C81.9841 28.2733 82.0548 28.1415 82.1384 28.0193C82.222 27.8971 82.3217 27.791 82.4375 27.7009C82.5596 27.6045 82.6979 27.5305 82.8523 27.4791C83.013 27.4212 83.1931 27.3923 83.3925 27.3923C83.6304 27.3923 83.8491 27.4341 84.0484 27.5177C84.2478 27.5948 84.4182 27.7138 84.5597 27.8746C84.7012 28.0354 84.8105 28.2315 84.8877 28.463C84.9713 28.6945 85.0131 28.9614 85.0131 29.2637V32.4856H83.5854V29.4566C83.5854 28.8135 83.3056 28.492 82.7461 28.492C82.6368 28.492 82.5275 28.508 82.4182 28.5402C82.3153 28.5659 82.222 28.6109 82.1384 28.6752C82.0548 28.7331 81.9873 28.8071 81.9358 28.8971C81.8908 28.9871 81.8683 29.0933 81.8683 29.2154V32.4856H80.4406Z" fill="white"/>
    <path d="M92.8615 32.9872C92.8615 33.5146 92.6397 33.9036 92.1959 34.1544C91.7522 34.4053 91.0544 34.5307 90.1026 34.5307C89.6268 34.5307 89.2345 34.5017 88.9258 34.4438C88.6171 34.3924 88.3695 34.3152 88.183 34.2123C88.0029 34.1094 87.8743 33.9872 87.7971 33.8458C87.7264 33.7043 87.691 33.5499 87.691 33.3827C87.691 33.0998 87.7746 32.8843 87.9418 32.7364C88.109 32.5949 88.3438 32.4856 88.646 32.4084V32.3505C88.4338 32.2862 88.2634 32.1962 88.1348 32.0804C88.0126 31.9583 87.9515 31.7878 87.9515 31.5692C87.9515 31.3248 88.0319 31.1447 88.1926 31.029C88.3598 30.9132 88.5785 30.8232 88.8486 30.7589V30.701C88.5528 30.5595 88.3213 30.3602 88.1541 30.1029C87.9933 29.8457 87.9129 29.5338 87.9129 29.1672C87.9129 28.8778 87.9643 28.6238 88.0672 28.4051C88.1701 28.1801 88.3148 27.9936 88.5013 27.8456C88.6943 27.6977 88.9226 27.5852 89.1862 27.508C89.4499 27.4308 89.7457 27.3923 90.0737 27.3923C90.3888 27.3923 90.6814 27.4276 90.9515 27.4984V27.2283C90.9515 27.0353 91.0191 26.8746 91.1541 26.7459C91.2892 26.6173 91.4757 26.553 91.7136 26.553H92.5914V27.5948H91.3953V27.6816C91.6654 27.8231 91.8744 28.0193 92.0223 28.2701C92.1766 28.5145 92.2538 28.8135 92.2538 29.1672C92.2538 29.4566 92.2024 29.7106 92.0995 29.9293C91.9966 30.1479 91.8487 30.3344 91.6557 30.4888C91.4628 30.6367 91.2313 30.7492 90.9612 30.8264C90.6975 30.9036 90.4017 30.9422 90.0737 30.9422C89.9258 30.9422 89.7843 30.9357 89.6493 30.9229C89.5142 30.9036 89.3856 30.8779 89.2634 30.8457C89.1927 30.8843 89.1316 30.9325 89.0801 30.9904C89.0351 31.0483 89.0126 31.1222 89.0126 31.2123C89.0126 31.2894 89.0319 31.3505 89.0705 31.3955C89.1091 31.4406 89.1605 31.4759 89.2248 31.5017C89.2956 31.521 89.3759 31.5338 89.466 31.5402C89.556 31.5467 89.6493 31.5499 89.7457 31.5499H90.884C91.2377 31.5499 91.54 31.5853 91.7908 31.656C92.0416 31.7267 92.2474 31.8264 92.4081 31.955C92.5689 32.0837 92.6847 32.2348 92.7554 32.4084C92.8262 32.5821 92.8615 32.775 92.8615 32.9872ZM91.511 33.0933C91.511 32.9647 91.4596 32.8618 91.3567 32.7846C91.2538 32.7139 91.0576 32.6785 90.7682 32.6785H89.0608C88.9322 32.7879 88.8679 32.9229 88.8679 33.0837C88.8679 33.238 88.9322 33.3634 89.0608 33.4599C89.1959 33.5628 89.421 33.6142 89.7361 33.6142H90.5753C90.9033 33.6142 91.1412 33.5692 91.2892 33.4792C91.4371 33.3892 91.511 33.2605 91.511 33.0933ZM90.0737 30.0354C90.3631 30.0354 90.5721 29.9647 90.7007 29.8232C90.8358 29.6817 90.9033 29.5016 90.9033 29.283V29.0515C90.9033 28.8328 90.8358 28.6527 90.7007 28.5112C90.5721 28.3698 90.3631 28.299 90.0737 28.299C89.7907 28.299 89.5849 28.3698 89.4563 28.5112C89.3277 28.6527 89.2634 28.8328 89.2634 29.0515V29.283C89.2634 29.5016 89.3277 29.6817 89.4563 29.8232C89.5849 29.9647 89.7907 30.0354 90.0737 30.0354Z" fill="white"/>
</svg>
