<svg width="374" height="93" viewBox="0 0 374 93" fill="none" xmlns="http://www.w3.org/2000/svg">
<path d="M192.927 73.5511C242.165 73.6867 286.142 71.0012 317.447 66.5378C333.085 64.3082 345.644 61.6236 354.13 58.5928C358.361 57.0817 361.69 55.4466 363.88 53.6662C366.013 51.9328 367.445 49.7405 366.827 47.0343C366.208 44.328 363.772 42.1251 360.844 40.3778C357.836 38.5831 353.755 36.9276 348.828 35.3912C338.946 32.3099 325.143 29.5528 308.466 27.2342C275.08 22.5927 229.82 19.6616 180.581 19.526C131.343 19.3905 87.3667 22.0759 56.0613 26.5394C40.4234 28.769 27.8642 31.4536 19.3784 34.4844C15.1475 35.9955 11.8187 37.6306 9.62817 39.411C7.49556 41.1444 6.06324 43.3366 6.68166 46.0429C7.30009 48.7491 9.73678 50.952 12.6648 52.6994C15.6723 54.4941 19.7531 56.1496 24.6804 57.6859C34.5629 60.7673 48.3656 63.5244 65.0429 65.843C98.4289 70.4845 143.689 73.4156 192.927 73.5511Z" stroke="#6153E1" stroke-width="4"/>
<path d="M193.628 19.7397C241.066 23.0637 308.769 29.4787 345.712 43.6398" stroke="#6153E1" stroke-width="4"/>
</svg>
