<svg width="375" height="567" viewBox="0 0 375 567" fill="none" xmlns="http://www.w3.org/2000/svg">
    <g opacity="0.9" filter="url(#filter0_f)">
        <ellipse cx="179.928" cy="283.695" rx="157.408" ry="157.569" fill="url(#paint0_linear)"/>
    </g>
    <g opacity="0.9" filter="url(#filter1_f)">
        <path d="M216.079 131.161L317.325 173.142L359.263 274.492L317.325 375.842L216.079 417.823L114.832 375.842L72.894 274.492L114.832 173.142L216.079 131.161Z" fill="url(#paint1_linear)"/>
    </g>
    <g opacity="0.9" filter="url(#filter2_f)">
        <path d="M220.768 278.255L287.431 305.896L315.044 372.627L287.431 439.359L220.768 467L154.105 439.359L126.492 372.627L154.105 305.896L220.768 278.255Z" fill="url(#paint2_linear)"/>
    </g>
    <path d="M24.57 282.606C23.2922 281.065 22.5774 279.315 22.4746 277.468C22.3173 274.536 23.7696 271.717 26.5474 269.53L169.1 156.995C174.834 152.471 184.606 152.031 190.9 155.99L347.439 254.894C350.569 256.866 352.375 259.617 352.526 262.62C352.683 265.551 351.231 268.37 348.453 270.557L205.901 383.093C200.166 387.616 190.394 388.056 184.1 384.097L27.561 285.193C26.3763 284.444 25.3687 283.569 24.57 282.606ZM349.957 257.877C349.211 256.978 348.259 256.143 347.106 255.433L190.567 156.529C184.475 152.683 175.024 153.117 169.491 157.493L26.9393 270.029C24.3385 272.09 22.9738 274.727 23.1164 277.432C23.2631 280.22 24.9664 282.796 27.9176 284.657L184.457 383.561C190.548 387.407 200 386.972 205.532 382.596L348.084 270.061C350.685 268 352.05 265.362 351.907 262.658C351.828 260.943 351.149 259.315 349.957 257.877Z" fill="url(#paint3_radial)"/>
    <path d="M21.7377 271.566C20.2469 269.768 19.4876 267.73 19.5535 265.59C19.6414 262.562 21.3986 259.771 24.4961 257.708L180.572 154.506C186.839 150.363 196.796 150.616 202.746 155.101L351.085 266.471C353.995 268.648 355.543 271.507 355.446 274.498C355.358 277.525 353.601 280.316 350.504 282.379L194.415 385.593C188.148 389.735 178.191 389.482 172.241 384.997L23.9148 273.616C23.0732 272.993 22.3447 272.298 21.7377 271.566ZM352.786 268.94C352.211 268.247 351.515 267.59 350.707 266.982L202.368 155.611C196.605 151.274 186.979 151.028 180.912 155.047L24.8367 258.25C21.9163 260.186 20.2702 262.798 20.1781 265.612C20.101 268.391 21.5484 271.05 24.2926 273.105L172.631 384.476C178.395 388.813 188.02 389.059 194.087 385.041L350.176 281.827C353.096 279.89 354.742 277.279 354.834 274.465C354.883 272.513 354.171 270.609 352.786 268.94Z" fill="url(#paint4_radial)"/>
    <path d="M20.0317 260.238C18.3066 258.159 17.5199 255.774 17.7864 253.379C18.1431 250.258 20.2158 247.508 23.6159 245.627L192.434 152.799C199.219 149.072 209.273 150.069 214.837 155.028L353.597 278.431C356.264 280.811 357.545 283.739 357.214 286.709C356.857 289.83 354.784 292.58 351.384 294.461L182.566 387.288C175.781 391.016 165.727 390.019 160.152 385.047L21.4141 261.67C20.9007 261.208 20.447 260.739 20.0317 260.238ZM354.482 280.255C354.098 279.793 353.655 279.337 353.174 278.913L214.436 155.537C209.046 150.736 199.331 149.782 192.77 153.388L23.9522 246.215C20.727 247.994 18.7654 250.564 18.4515 253.476C18.1527 256.223 19.3442 258.966 21.8601 261.189L160.598 384.566C165.988 389.367 175.703 390.321 182.264 386.715L351.082 293.887C354.307 292.109 356.269 289.539 356.583 286.627C356.832 284.42 356.09 282.194 354.482 280.255Z" fill="url(#paint5_radial)"/>
    <path d="M19.5241 248.736C17.5435 246.348 16.7315 243.594 17.2712 240.928C17.8901 237.783 20.3422 235.021 24.0044 233.378L204.651 151.991C211.903 148.722 221.994 150.47 227.125 155.899L354.897 290.705C357.302 293.239 358.314 296.261 357.74 299.172C357.121 302.317 354.669 305.08 351.007 306.723L170.36 388.109C163.108 391.378 153.017 389.631 147.886 384.202L20.1141 249.396C19.9096 249.175 19.7158 248.968 19.5241 248.736ZM354.977 291.768C354.807 291.562 354.613 291.355 354.419 291.147L226.658 156.354C221.686 151.117 211.945 149.426 204.915 152.597L24.2682 233.983C20.8023 235.549 18.474 238.121 17.9085 241.07C17.3774 243.772 18.3385 246.576 20.592 248.953L148.364 383.759C153.335 388.996 163.077 390.687 170.107 387.516L350.754 306.13C354.219 304.564 356.548 301.992 357.113 299.044C357.589 296.562 356.841 294.014 354.977 291.768Z" fill="url(#paint6_radial)"/>
    <path d="M135.728 382.679C135.664 382.602 135.6 382.525 135.547 382.461L20.0609 236.928C17.9185 234.24 17.1942 231.174 18.0112 228.32C18.9202 225.107 21.7048 222.458 25.6652 221.044L217.095 152.058C224.687 149.33 234.565 151.734 239.282 157.422C239.346 157.499 239.41 157.576 239.463 157.64L354.949 303.173C357.092 305.86 357.816 308.927 356.999 311.781C356.09 314.994 353.305 317.643 349.345 319.057L157.917 388.019C150.323 390.77 140.445 388.367 135.728 382.679ZM238.77 157.849C234.213 152.354 224.67 150.04 217.31 152.683L25.8821 221.645C22.1286 222.995 19.4997 225.492 18.6464 228.485C17.8957 231.131 18.5924 233.982 20.5729 236.501L136.059 382.034C140.542 387.7 150.242 390.099 157.677 387.416L349.115 318.466C352.869 317.116 355.498 314.619 356.351 311.626C357.102 308.98 356.405 306.129 354.425 303.611L238.951 158.067C238.887 157.99 238.834 157.926 238.77 157.849Z" fill="url(#paint7_radial)"/>
    <path d="M124.13 380.994C123.799 380.596 123.506 380.19 123.224 379.772L21.3132 224.283C19.4672 221.457 19.018 218.356 20.0652 215.571C21.2833 212.339 24.4004 209.804 28.61 208.638L229.705 153.029C237.785 150.785 247.688 154.08 251.786 160.328L353.7 315.793C355.546 318.619 355.995 321.72 354.948 324.505C353.729 327.737 350.612 330.272 346.403 331.438L145.318 387.06C137.784 389.153 128.645 386.438 124.13 380.994ZM250.346 159.531C245.99 154.28 237.16 151.676 229.858 153.684L28.7971 209.308C24.7943 210.41 21.833 212.793 20.7046 215.82C19.7343 218.411 20.1454 221.283 21.8785 223.92L123.803 379.399C127.756 385.419 137.328 388.577 145.153 386.416L346.237 330.794C350.24 329.693 353.201 327.309 354.33 324.282C355.3 321.692 354.889 318.82 353.156 316.182L251.221 160.691C250.961 160.299 250.665 159.916 250.346 159.531Z" fill="url(#paint8_radial)"/>
    <path d="M112.593 378.497C111.987 377.765 111.454 376.993 111.022 376.159L23.8787 211.63C22.3271 208.688 22.1636 205.567 23.4516 202.863C24.9896 199.625 28.4221 197.261 32.8787 196.367L242.359 154.942C250.776 153.286 260.481 157.31 263.989 163.942L351.132 328.47C352.684 331.412 352.847 334.534 351.559 337.237C350.021 340.475 346.589 342.839 342.132 343.733L132.662 385.171C125.282 386.614 116.906 383.697 112.593 378.497ZM261.882 162.028C257.718 157.008 249.628 154.2 242.486 155.617L33.0167 197.056C28.7775 197.898 25.5242 200.113 24.0739 203.169C22.8863 205.681 23.035 208.576 24.4866 211.318L111.63 375.847C115.008 382.218 124.383 386.105 132.512 384.493L341.981 343.055C346.22 342.212 349.487 339.987 350.924 336.942C352.112 334.43 351.963 331.535 350.511 328.793L263.381 164.253C262.968 163.468 262.468 162.734 261.882 162.028Z" fill="url(#paint9_radial)"/>
    <path d="M101.203 375.183C100.288 374.079 99.5573 372.885 99.0233 371.615L27.7981 199.041C26.5515 195.998 26.695 192.88 28.2132 190.245C30.0922 187.027 33.838 184.858 38.4777 184.289L254.997 157.801C263.703 156.729 273.114 161.521 275.988 168.485L347.237 341.061C348.483 344.105 348.34 347.222 346.822 349.857C344.943 353.075 341.197 355.244 336.557 355.813L120.048 382.314C112.899 383.174 105.303 380.126 101.203 375.183ZM273.249 165.34C269.298 160.576 261.952 157.647 255.065 158.483L38.5666 184.997C34.1294 185.549 30.5736 187.581 28.8184 190.609C27.4133 193.041 27.2658 195.945 28.4486 198.781L99.6972 371.357C102.454 378.05 111.552 382.646 119.959 381.606L336.468 355.105C340.905 354.553 344.461 352.521 346.216 349.493C347.621 347.061 347.769 344.157 346.586 341.321L275.337 168.745C274.833 167.537 274.122 166.392 273.249 165.34Z" fill="url(#paint10_radial)"/>
    <path d="M90.0628 371.074C88.8169 369.572 87.8803 367.921 87.3553 366.165L33.0623 186.612C32.1078 183.477 32.5583 180.364 34.3387 177.836C36.5545 174.684 40.5878 172.732 45.3979 172.499L267.489 161.607C276.421 161.173 285.468 166.702 287.643 173.946L341.936 353.498C342.89 356.633 342.44 359.746 340.659 362.274C338.444 365.426 334.41 367.379 329.6 367.612L107.509 378.503C100.752 378.818 93.9282 375.735 90.0628 371.074ZM284.4 169.461C280.673 164.968 274.075 162 267.531 162.311L45.4399 173.202C40.8431 173.431 37.0102 175.26 34.9161 178.245C33.283 180.585 32.8519 183.486 33.7319 186.401L88.0249 365.954C90.1315 372.907 98.8445 378.215 107.479 377.789L329.571 366.898C334.168 366.669 338.001 364.84 340.095 361.855C341.728 359.515 342.159 356.614 341.279 353.698L286.986 174.146C286.465 172.474 285.582 170.886 284.4 169.461Z" fill="url(#paint11_radial)"/>
    <path d="M79.2453 366.153C77.648 364.227 76.5349 362.05 76.0935 359.768L39.6996 174.429C39.0714 171.217 39.8395 168.121 41.8564 165.722C44.4175 162.673 48.7235 160.97 53.6548 161.093L279.763 166.378C288.861 166.587 297.451 172.845 298.918 180.332L335.312 365.671C335.94 368.883 335.172 371.979 333.155 374.378C330.594 377.427 326.288 379.13 321.356 379.008L95.2477 373.722C88.935 373.579 82.8658 370.518 79.2453 366.153ZM295.207 174.37C291.725 170.171 285.858 167.224 279.746 167.088L53.6243 161.813C48.9041 161.71 44.8092 163.302 42.3932 166.186C40.5215 168.421 39.809 171.296 40.3862 174.29L76.7801 359.63C78.1808 366.802 86.4754 372.807 95.2548 372.999L321.387 378.287C326.107 378.39 330.202 376.798 332.618 373.914C334.49 371.679 335.202 368.804 334.625 365.81L298.231 180.471C297.792 178.296 296.73 176.206 295.207 174.37Z" fill="url(#paint12_radial)"/>
    <path d="M68.8523 360.465C66.8823 358.09 65.6077 355.352 65.3373 352.493L47.6622 162.616C47.3581 159.351 48.4417 156.296 50.7208 154.004C53.6357 151.095 58.1738 149.698 63.1793 150.171L291.714 172.092C300.915 172.974 308.981 179.931 309.686 187.597L327.372 377.486C327.676 380.752 326.592 383.806 324.313 386.098C321.398 389.008 316.86 390.405 311.855 389.932L83.3197 368.011C77.5297 367.454 72.1959 364.496 68.8523 360.465ZM305.597 180.082C302.381 176.204 297.216 173.345 291.624 172.819L63.0998 150.911C58.3181 150.447 53.9868 151.779 51.2277 154.537C49.1066 156.654 48.0999 159.514 48.3764 162.563L66.0623 352.453C66.7507 359.785 74.5117 366.453 83.3843 367.305L311.919 389.226C316.701 389.69 321.032 388.358 323.791 385.6C325.912 383.483 326.919 380.623 326.643 377.573L308.946 187.671C308.697 184.968 307.482 182.354 305.597 180.082Z" fill="url(#paint13_radial)"/>
    <path d="M58.9445 354.003C56.5805 351.153 55.1637 347.773 55.2051 344.35L56.9553 151.258C56.9881 147.929 58.3979 144.928 60.9347 142.79C64.1757 140.065 68.9203 138.996 73.9511 139.838L303.202 178.735C312.434 180.308 319.883 187.931 319.808 195.727L318.045 388.83C318.012 392.159 316.602 395.16 314.066 397.298C310.825 400.023 306.08 401.092 301.062 400.239L71.811 361.342C66.6161 360.485 61.99 357.675 58.9445 354.003ZM315.516 186.557C312.588 183.026 308.117 180.326 303.076 179.47L73.8247 140.574C69.0156 139.763 64.5013 140.771 61.4139 143.368C59.0435 145.367 57.7234 148.163 57.6993 151.267L55.9363 344.37C55.8678 351.834 63.0398 359.124 71.9353 360.63L301.186 399.527C305.995 400.338 310.51 399.33 313.597 396.733C315.967 394.734 317.288 391.938 317.312 388.833L319.075 195.731C319.112 192.485 317.763 189.266 315.516 186.557Z" fill="url(#paint14_radial)"/>
    <path d="M49.6119 346.8C46.8326 343.449 45.3375 339.375 45.7717 335.406L67.5664 140.472C67.934 137.103 69.6934 134.158 72.5094 132.2C76.0721 129.705 80.987 128.972 85.9598 130.189L314.168 186.291C323.361 188.548 330.125 196.808 329.25 204.684L307.456 399.618C307.088 402.988 305.329 405.933 302.513 407.891C298.95 410.385 294.035 411.118 289.062 409.902L60.8541 353.8C56.2862 352.68 52.3379 350.087 49.6119 346.8ZM324.834 193.771C322.204 190.6 318.377 188.101 313.971 187.02L85.7737 130.931C81.0097 129.757 76.323 130.452 72.9374 132.82C70.3091 134.665 68.6629 137.407 68.3147 140.565L46.5199 335.499C45.6775 343.023 52.1922 350.903 61.0381 353.082L289.259 409.173C294.023 410.347 298.71 409.652 302.095 407.283C304.724 405.438 306.37 402.697 306.718 399.539L328.5 204.615C328.917 200.835 327.486 196.968 324.834 193.771Z" fill="url(#paint15_radial)"/>
    <path d="M40.9041 338.86C37.7095 335.008 36.1532 330.181 37.1465 325.659L79.4195 130.346C80.1559 126.951 82.2499 124.096 85.3323 122.328C89.1889 120.11 94.2122 119.743 99.0803 121.329L324.486 194.735C333.568 197.694 339.581 206.537 337.864 214.442L295.591 409.756C294.855 413.151 292.761 416.005 289.678 417.773C285.822 419.991 280.798 420.359 275.93 418.772L50.5242 345.366C46.6324 344.095 43.3 341.748 40.9041 338.86ZM333.53 201.722C331.22 198.936 328.009 196.684 324.255 195.449L98.86 122.056C94.1753 120.534 89.3908 120.876 85.709 122.992C82.8251 124.659 80.8421 127.334 80.1612 130.509L37.8883 325.822C36.2527 333.356 42.0314 341.786 50.7573 344.629L276.153 418.022C280.838 419.544 285.622 419.202 289.304 417.086C292.188 415.419 294.171 412.744 294.852 409.569L337.122 214.279C338.047 209.988 336.576 205.394 333.53 201.722Z" fill="url(#paint16_radial)"/>
    <path d="M32.9348 330.216C29.3143 325.851 27.7971 320.209 29.4262 315.201L92.4787 120.994C93.584 117.574 96.0446 114.848 99.4039 113.284C103.516 111.374 108.599 111.391 113.328 113.332L334.067 204.013C342.967 207.666 348.139 217.036 345.586 224.9L282.536 419.084C281.431 422.504 278.97 425.23 275.611 426.794C271.499 428.704 266.416 428.687 261.687 426.745L40.9459 336.088C37.7213 334.76 34.99 332.694 32.9348 330.216ZM341.499 210.389C339.519 208.001 336.888 206.004 333.776 204.733L113.048 114.066C108.513 112.201 103.656 112.169 99.7401 114.002C96.5792 115.466 94.2744 118.041 93.2353 121.253L30.1849 315.437C27.7499 322.92 32.7244 331.869 41.2599 335.37L261.988 426.038C266.523 427.902 271.38 427.934 275.296 426.101C278.457 424.637 280.762 422.063 281.801 418.85L344.851 224.667C346.399 219.9 344.96 214.562 341.499 210.389Z" fill="url(#paint17_radial)"/>
    <path d="M25.7363 320.884C21.6792 315.993 20.2864 309.509 22.6664 304.048L106.674 112.518C108.17 109.098 110.997 106.5 114.616 105.197C118.945 103.627 124.038 104.049 128.584 106.317L342.815 214.091C351.474 218.446 355.739 228.289 352.332 236.063L268.337 427.582C266.842 431.002 264.014 433.6 260.395 434.903C256.066 436.473 250.973 436.051 246.427 433.783L32.196 326.009C29.6302 324.717 27.4401 322.939 25.7363 320.884ZM348.684 219.73C347.044 217.753 344.943 216.03 342.467 214.794L128.236 107.02C123.884 104.829 119.026 104.429 114.892 105.922C111.469 107.149 108.809 109.607 107.403 112.822L23.408 304.341C20.1672 311.715 24.2842 321.118 32.5591 325.272L246.791 433.045C251.142 435.237 256.001 435.636 260.134 434.143C263.557 432.917 266.217 430.458 267.623 427.244L351.605 235.735C353.889 230.55 352.549 224.391 348.684 219.73Z" fill="url(#paint18_radial)"/>
    <path d="M19.4129 310.911C14.9299 305.505 13.7383 298.115 17.014 292.298L121.941 104.994C123.848 101.6 127.027 99.1658 130.917 98.1365C135.425 96.9389 140.471 97.7474 144.773 100.349L350.645 224.915C358.957 229.949 362.274 240.216 358.02 247.805L253.093 435.108C251.186 438.502 248.007 440.936 244.117 441.966C239.609 443.163 234.563 442.355 230.261 439.753L24.3788 315.174C22.4397 314.012 20.7759 312.554 19.4129 310.911ZM355.007 229.704C353.697 228.125 352.099 226.721 350.239 225.601L144.357 101.022C140.233 98.5319 135.42 97.7685 131.119 98.9022C127.436 99.8675 124.421 102.187 122.628 105.378L17.7002 292.681C13.6578 299.898 16.8407 309.689 24.7951 314.501L230.667 439.067C234.779 441.545 239.604 442.321 243.892 441.198C247.575 440.233 250.589 437.913 252.383 434.722L357.311 247.419C360.407 241.882 359.277 234.853 355.007 229.704Z" fill="url(#paint19_radial)"/>
    <path d="M14.0073 300.345C9.09831 294.427 8.25296 286.095 12.4755 280.01L138.178 98.5088C140.495 95.1646 144.057 92.9312 148.202 92.2101C152.827 91.4146 157.766 92.6164 161.782 95.5002L357.431 236.414C365.34 242.111 367.631 252.733 362.536 260.09L236.82 441.602C234.504 444.946 230.941 447.18 226.796 447.901C222.171 448.696 217.232 447.494 213.216 444.611L17.569 303.673C16.2161 302.695 15.0295 301.578 14.0073 300.345ZM360.389 240.268C359.41 239.086 358.266 238.021 356.968 237.083L161.308 96.1562C157.471 93.3838 152.739 92.2484 148.342 93.0057C144.414 93.6757 141.05 95.8087 138.845 98.9734L13.1317 280.461C8.29439 287.451 10.5005 297.58 18.0557 303.007L213.716 443.933C217.553 446.706 222.285 447.841 226.682 447.084C230.609 446.414 233.973 444.281 236.166 441.127L361.882 259.615C365.886 253.841 365.075 245.917 360.389 240.268Z" fill="url(#paint20_radial)"/>
    <path d="M9.5952 289.255C4.24964 282.81 3.8699 273.525 9.13727 267.263L155.305 93.1487C158.052 89.8798 161.972 87.8691 166.345 87.501C171.087 87.1076 175.77 88.6534 179.521 91.8448L363.132 248.536C370.556 254.876 371.794 265.769 365.863 272.824L219.706 446.951C216.959 450.22 213.038 452.231 208.665 452.599C203.923 452.993 199.241 451.447 195.489 448.255L11.8786 291.564C11.0457 290.847 10.2767 290.076 9.5952 289.255ZM364.775 251.379C364.126 250.596 363.401 249.854 362.6 249.175L178.979 92.4708C175.404 89.4143 170.929 87.9349 166.4 88.3243C162.253 88.6776 158.533 90.5644 155.918 93.6796L9.77426 267.796C4.14618 274.511 5.32443 284.889 12.4101 290.925L196.021 447.616C199.595 450.673 204.071 452.152 208.6 451.763C212.747 451.41 216.467 449.523 219.081 446.408L365.236 272.304C370.239 266.349 369.865 257.516 364.775 251.379Z" fill="url(#paint21_radial)"/>
    <path d="M6.26682 277.695C3.62598 274.511 2.15415 270.569 2.11948 266.427C2.07462 261.751 3.83314 257.395 7.098 254.15L173.209 88.987C176.474 85.742 180.842 84.0097 185.491 84.1059C190.141 84.202 194.555 86.1025 197.865 89.4667L367.66 261.203C370.993 264.569 372.846 268.997 372.904 273.663C372.949 278.339 371.19 282.695 367.925 285.94L201.814 451.103C195.088 457.8 184.017 457.587 177.146 450.634L7.35092 278.898C6.97392 278.495 6.60757 278.106 6.26682 277.695ZM368.104 262.94C367.774 262.542 367.431 262.154 367.062 261.788L197.28 90.0414C194.098 86.8312 189.912 85.0228 185.476 84.9226C181.05 84.8353 176.891 86.4801 173.795 89.5627L7.68379 254.726C4.58751 257.808 2.90805 261.946 2.96163 266.398C3.01522 270.85 4.78103 275.068 7.96336 278.278L177.745 450.025C184.293 456.64 194.831 456.863 201.22 450.491L367.329 285.351C370.425 282.269 372.105 278.131 372.051 273.679C372.01 269.738 370.627 265.982 368.104 262.94Z" fill="url(#paint22_radial)"/>
    <path d="M158.296 451.696L4.08366 265.766C-2.15638 258.242 -1.12941 247.024 6.3723 240.766L191.777 86.0955C199.279 79.8374 210.464 80.8673 216.704 88.3908L370.916 274.321C377.156 281.845 376.129 293.063 368.628 299.321L183.236 453.981C175.732 460.263 164.546 459.233 158.296 451.696ZM216.051 88.9355C210.11 81.7715 199.453 80.7783 192.297 86.7481L6.90472 241.408C-0.238536 247.367 -1.22879 258.055 4.72374 265.232L158.936 451.162C164.878 458.326 175.535 459.32 182.691 453.35L368.095 298.679C375.239 292.72 376.229 282.032 370.276 274.855L216.064 88.9248L216.051 88.9355Z" fill="url(#paint23_radial)"/>
    <g style="mix-blend-mode:overlay">
        <path fill-rule="evenodd" clip-rule="evenodd" d="M198.928 303.269H154.579V289.908H198.928V303.269Z" fill="white"/>
        <path fill-rule="evenodd" clip-rule="evenodd" d="M167.536 220.875H221.103V238.69H174.884L168.993 244.606V259.496L174.884 265.413H208.146L224.429 281.765V311.413L208.146 327.766H154.579V309.951H200.798L206.69 304.034V289.144L200.798 283.228H167.536L151.253 266.875V237.227L167.536 220.875Z" fill="white"/>
        <path fill-rule="evenodd" clip-rule="evenodd" d="M221.103 258.731H176.754V245.37H221.103V258.731Z" fill="white"/>
    </g>
    <defs>
        <filter id="filter0_f" x="-102.821" y="0.785034" width="565.498" height="565.82" filterUnits="userSpaceOnUse" color-interpolation-filters="sRGB">
            <feFlood flood-opacity="0" result="BackgroundImageFix"/>
            <feBlend mode="normal" in="SourceGraphic" in2="BackgroundImageFix" result="shape"/>
            <feGaussianBlur stdDeviation="62.6707" result="effect1_foregroundBlur"/>
        </filter>
        <filter id="filter1_f" x="-21.112" y="37.1548" width="474.381" height="474.674" filterUnits="userSpaceOnUse" color-interpolation-filters="sRGB">
            <feFlood flood-opacity="0" result="BackgroundImageFix"/>
            <feBlend mode="normal" in="SourceGraphic" in2="BackgroundImageFix" result="shape"/>
            <feGaussianBlur stdDeviation="47.003" result="effect1_foregroundBlur"/>
        </filter>
        <filter id="filter2_f" x="32.4859" y="184.249" width="376.564" height="376.757" filterUnits="userSpaceOnUse" color-interpolation-filters="sRGB">
            <feFlood flood-opacity="0" result="BackgroundImageFix"/>
            <feBlend mode="normal" in="SourceGraphic" in2="BackgroundImageFix" result="shape"/>
            <feGaussianBlur stdDeviation="47.003" result="effect1_foregroundBlur"/>
        </filter>
        <linearGradient id="paint0_linear" x1="55.0615" y1="147.843" x2="275.064" y2="441.048" gradientUnits="userSpaceOnUse">
            <stop stop-color="#6100FF"/>
            <stop offset="1" stop-color="#00FFFF" stop-opacity="0"/>
        </linearGradient>
        <linearGradient id="paint1_linear" x1="216.079" y1="131.161" x2="216.079" y2="417.823" gradientUnits="userSpaceOnUse">
            <stop stop-color="#FF5C00"/>
            <stop offset="1" stop-color="#FFB800" stop-opacity="0"/>
        </linearGradient>
        <linearGradient id="paint2_linear" x1="220.768" y1="278.255" x2="220.768" y2="467" gradientUnits="userSpaceOnUse">
            <stop stop-color="#0057FF"/>
            <stop offset="1" stop-color="#FF00B8" stop-opacity="0"/>
        </linearGradient>
        <radialGradient id="paint3_radial" cx="0" cy="0" r="1" gradientUnits="userSpaceOnUse" gradientTransform="translate(187.5 270.047) rotate(90) scale(188.047 187.5)">
            <stop stop-color="white"/>
            <stop offset="0.510417" stop-color="white" stop-opacity="0.304565"/>
            <stop offset="0.966122" stop-color="white" stop-opacity="0"/>
        </radialGradient>
        <radialGradient id="paint4_radial" cx="0" cy="0" r="1" gradientUnits="userSpaceOnUse" gradientTransform="translate(187.5 270.047) rotate(90) scale(188.047 187.5)">
            <stop stop-color="white"/>
            <stop offset="0.510417" stop-color="white" stop-opacity="0.304565"/>
            <stop offset="0.966122" stop-color="white" stop-opacity="0"/>
        </radialGradient>
        <radialGradient id="paint5_radial" cx="0" cy="0" r="1" gradientUnits="userSpaceOnUse" gradientTransform="translate(187.5 270.047) rotate(90) scale(188.047 187.5)">
            <stop stop-color="white"/>
            <stop offset="0.510417" stop-color="white" stop-opacity="0.304565"/>
            <stop offset="0.966122" stop-color="white" stop-opacity="0"/>
        </radialGradient>
        <radialGradient id="paint6_radial" cx="0" cy="0" r="1" gradientUnits="userSpaceOnUse" gradientTransform="translate(187.5 270.047) rotate(90) scale(188.047 187.5)">
            <stop stop-color="white"/>
            <stop offset="0.510417" stop-color="white" stop-opacity="0.304565"/>
            <stop offset="0.966122" stop-color="white" stop-opacity="0"/>
        </radialGradient>
        <radialGradient id="paint7_radial" cx="0" cy="0" r="1" gradientUnits="userSpaceOnUse" gradientTransform="translate(187.5 270.047) rotate(90) scale(188.047 187.5)">
            <stop stop-color="white"/>
            <stop offset="0.510417" stop-color="white" stop-opacity="0.304565"/>
            <stop offset="0.966122" stop-color="white" stop-opacity="0"/>
        </radialGradient>
        <radialGradient id="paint8_radial" cx="0" cy="0" r="1" gradientUnits="userSpaceOnUse" gradientTransform="translate(187.5 270.047) rotate(90) scale(188.047 187.5)">
            <stop stop-color="white"/>
            <stop offset="0.510417" stop-color="white" stop-opacity="0.304565"/>
            <stop offset="0.966122" stop-color="white" stop-opacity="0"/>
        </radialGradient>
        <radialGradient id="paint9_radial" cx="0" cy="0" r="1" gradientUnits="userSpaceOnUse" gradientTransform="translate(187.5 270.047) rotate(90) scale(188.047 187.5)">
            <stop stop-color="white"/>
            <stop offset="0.510417" stop-color="white" stop-opacity="0.304565"/>
            <stop offset="0.966122" stop-color="white" stop-opacity="0"/>
        </radialGradient>
        <radialGradient id="paint10_radial" cx="0" cy="0" r="1" gradientUnits="userSpaceOnUse" gradientTransform="translate(187.5 270.047) rotate(90) scale(188.047 187.5)">
            <stop stop-color="white"/>
            <stop offset="0.510417" stop-color="white" stop-opacity="0.304565"/>
            <stop offset="0.966122" stop-color="white" stop-opacity="0"/>
        </radialGradient>
        <radialGradient id="paint11_radial" cx="0" cy="0" r="1" gradientUnits="userSpaceOnUse" gradientTransform="translate(187.5 270.047) rotate(90) scale(188.047 187.5)">
            <stop stop-color="white"/>
            <stop offset="0.510417" stop-color="white" stop-opacity="0.304565"/>
            <stop offset="0.966122" stop-color="white" stop-opacity="0"/>
        </radialGradient>
        <radialGradient id="paint12_radial" cx="0" cy="0" r="1" gradientUnits="userSpaceOnUse" gradientTransform="translate(187.5 270.047) rotate(90) scale(188.047 187.5)">
            <stop stop-color="white"/>
            <stop offset="0.510417" stop-color="white" stop-opacity="0.304565"/>
            <stop offset="0.966122" stop-color="white" stop-opacity="0"/>
        </radialGradient>
        <radialGradient id="paint13_radial" cx="0" cy="0" r="1" gradientUnits="userSpaceOnUse" gradientTransform="translate(187.5 270.047) rotate(90) scale(188.047 187.5)">
            <stop stop-color="white"/>
            <stop offset="0.510417" stop-color="white" stop-opacity="0.304565"/>
            <stop offset="0.966122" stop-color="white" stop-opacity="0"/>
        </radialGradient>
        <radialGradient id="paint14_radial" cx="0" cy="0" r="1" gradientUnits="userSpaceOnUse" gradientTransform="translate(187.5 270.047) rotate(90) scale(188.047 187.5)">
            <stop stop-color="white"/>
            <stop offset="0.510417" stop-color="white" stop-opacity="0.304565"/>
            <stop offset="0.966122" stop-color="white" stop-opacity="0"/>
        </radialGradient>
        <radialGradient id="paint15_radial" cx="0" cy="0" r="1" gradientUnits="userSpaceOnUse" gradientTransform="translate(187.5 270.047) rotate(90) scale(188.047 187.5)">
            <stop stop-color="white"/>
            <stop offset="0.510417" stop-color="white" stop-opacity="0.304565"/>
            <stop offset="0.966122" stop-color="white" stop-opacity="0"/>
        </radialGradient>
        <radialGradient id="paint16_radial" cx="0" cy="0" r="1" gradientUnits="userSpaceOnUse" gradientTransform="translate(187.5 270.047) rotate(90) scale(188.047 187.5)">
            <stop stop-color="white"/>
            <stop offset="0.510417" stop-color="white" stop-opacity="0.304565"/>
            <stop offset="0.966122" stop-color="white" stop-opacity="0"/>
        </radialGradient>
        <radialGradient id="paint17_radial" cx="0" cy="0" r="1" gradientUnits="userSpaceOnUse" gradientTransform="translate(187.5 270.047) rotate(90) scale(188.047 187.5)">
            <stop stop-color="white"/>
            <stop offset="0.510417" stop-color="white" stop-opacity="0.304565"/>
            <stop offset="0.966122" stop-color="white" stop-opacity="0"/>
        </radialGradient>
        <radialGradient id="paint18_radial" cx="0" cy="0" r="1" gradientUnits="userSpaceOnUse" gradientTransform="translate(187.5 270.047) rotate(90) scale(188.047 187.5)">
            <stop stop-color="white"/>
            <stop offset="0.510417" stop-color="white" stop-opacity="0.304565"/>
            <stop offset="0.966122" stop-color="white" stop-opacity="0"/>
        </radialGradient>
        <radialGradient id="paint19_radial" cx="0" cy="0" r="1" gradientUnits="userSpaceOnUse" gradientTransform="translate(187.5 270.047) rotate(90) scale(188.047 187.5)">
            <stop stop-color="white"/>
            <stop offset="0.510417" stop-color="white" stop-opacity="0.304565"/>
            <stop offset="0.966122" stop-color="white" stop-opacity="0"/>
        </radialGradient>
        <radialGradient id="paint20_radial" cx="0" cy="0" r="1" gradientUnits="userSpaceOnUse" gradientTransform="translate(187.5 270.047) rotate(90) scale(188.047 187.5)">
            <stop stop-color="white"/>
            <stop offset="0.510417" stop-color="white" stop-opacity="0.304565"/>
            <stop offset="0.966122" stop-color="white" stop-opacity="0"/>
        </radialGradient>
        <radialGradient id="paint21_radial" cx="0" cy="0" r="1" gradientUnits="userSpaceOnUse" gradientTransform="translate(187.5 270.047) rotate(90) scale(188.047 187.5)">
            <stop stop-color="white"/>
            <stop offset="0.510417" stop-color="white" stop-opacity="0.304565"/>
            <stop offset="0.966122" stop-color="white" stop-opacity="0"/>
        </radialGradient>
        <radialGradient id="paint22_radial" cx="0" cy="0" r="1" gradientUnits="userSpaceOnUse" gradientTransform="translate(187.5 270.047) rotate(90) scale(188.047 187.5)">
            <stop stop-color="white"/>
            <stop offset="0.510417" stop-color="white" stop-opacity="0.304565"/>
            <stop offset="0.966122" stop-color="white" stop-opacity="0"/>
        </radialGradient>
        <radialGradient id="paint23_radial" cx="0" cy="0" r="1" gradientUnits="userSpaceOnUse" gradientTransform="translate(187.5 270.047) rotate(90) scale(188.047 187.5)">
            <stop stop-color="white"/>
            <stop offset="0.510417" stop-color="white" stop-opacity="0.304565"/>
            <stop offset="0.966122" stop-color="white" stop-opacity="0"/>
        </radialGradient>
    </defs>
</svg>
