<svg width="343" height="372" viewBox="0 0 343 372" fill="none" xmlns="http://www.w3.org/2000/svg">
    <line x1="59" y1="115.5" x2="343" y2="115.5" stroke="#EAE6F0"/>
    <line x1="59" y1="179.5" x2="343" y2="179.5" stroke="#EAE6F0"/>
    <line x1="59" y1="243.5" x2="343" y2="243.5" stroke="#EAE6F0"/>
    <line x1="59" y1="307.5" x2="343" y2="307.5" stroke="#EAE6F0"/>
    <path d="M8.07771 122.309L1.66571 122.302L1.66695 121.098L4.86198 118.161C5.31975 117.742 5.70287 117.299 6.01135 116.832C6.31985 116.357 6.47434 115.881 6.47483 115.405L6.475 115.237C6.47556 114.696 6.32668 114.257 6.02836 113.92C5.73004 113.584 5.27755 113.416 4.67088 113.415C4.37221 113.415 4.11084 113.457 3.88675 113.54C3.66266 113.624 3.46654 113.741 3.29839 113.89C3.13957 114.039 3.00405 114.216 2.89184 114.421C2.78897 114.617 2.70475 114.832 2.63918 115.065L1.5896 114.658C1.68323 114.369 1.80952 114.089 1.96846 113.818C2.13675 113.538 2.34234 113.291 2.58523 113.077C2.83745 112.863 3.13629 112.69 3.48176 112.56C3.83656 112.43 4.25196 112.365 4.72796 112.365C5.20396 112.366 5.62856 112.436 6.00174 112.576C6.37493 112.717 6.6874 112.913 6.93914 113.165C7.19088 113.418 7.3819 113.717 7.51221 114.062C7.65186 114.407 7.72146 114.79 7.72103 115.21C7.72063 115.593 7.66427 115.948 7.55193 116.274C7.44893 116.601 7.30394 116.913 7.11696 117.212C6.93 117.501 6.70104 117.785 6.43008 118.065C6.16846 118.345 5.88351 118.624 5.57522 118.904L2.94078 121.267L8.07878 121.273L8.07771 122.309ZM13.2101 122.482C12.0434 122.481 11.1899 122.036 10.6494 121.149C10.1184 120.262 9.85363 119.02 9.85528 117.424C9.85692 115.828 10.1242 114.587 10.6571 113.701C11.1994 112.815 12.0538 112.373 13.2205 112.374C14.3872 112.375 15.236 112.819 15.7671 113.707C16.3075 114.594 16.5769 115.835 16.5753 117.431C16.5736 119.027 16.3017 120.268 15.7594 121.155C15.2265 122.041 14.3767 122.483 13.2101 122.482ZM13.2111 121.46C13.5938 121.46 13.9205 121.381 14.1914 121.223C14.4622 121.065 14.6818 120.841 14.8501 120.552C15.0184 120.262 15.14 119.922 15.2151 119.53C15.2995 119.138 15.342 118.704 15.3425 118.228L15.3441 116.632C15.3446 116.156 15.303 115.722 15.2194 115.33C15.1452 114.938 15.0242 114.597 14.8565 114.308C14.6888 114.018 14.4697 113.794 14.1992 113.635C13.9287 113.476 13.6021 113.396 13.2194 113.396C12.8368 113.396 12.51 113.475 12.2392 113.633C11.9684 113.791 11.7488 114.015 11.5805 114.304C11.4122 114.593 11.2858 114.934 11.2014 115.326C11.1264 115.718 11.0886 116.152 11.0881 116.628L11.0865 118.224C11.086 118.7 11.1228 119.134 11.1971 119.526C11.2807 119.918 11.4064 120.259 11.5741 120.548C11.7418 120.838 11.9609 121.062 12.2314 121.221C12.5019 121.38 12.8285 121.46 13.2111 121.46ZM21.6046 122.491C20.4379 122.489 19.5844 122.045 19.044 121.158C18.5129 120.271 18.2482 119.029 18.2498 117.433C18.2515 115.837 18.5187 114.596 19.0516 113.71C19.5939 112.824 20.4483 112.381 21.615 112.383C22.7817 112.384 23.6306 112.828 24.1616 113.715C24.7021 114.602 24.9714 115.844 24.9698 117.44C24.9682 119.036 24.6962 120.277 24.154 121.163C23.621 122.049 22.7713 122.492 21.6046 122.491ZM21.6056 121.469C21.9883 121.469 22.3151 121.39 22.5859 121.232C22.8567 121.073 23.0763 120.849 23.2446 120.56C23.4129 120.271 23.5346 119.931 23.6096 119.539C23.694 119.147 23.7365 118.713 23.737 118.237L23.7386 116.641C23.7391 116.165 23.6976 115.731 23.614 115.339C23.5397 114.947 23.4187 114.606 23.251 114.316C23.0833 114.027 22.8642 113.803 22.5937 113.644C22.3232 113.485 21.9966 113.405 21.614 113.405C21.2313 113.404 20.9045 113.483 20.6337 113.642C20.3629 113.8 20.1433 114.024 19.975 114.313C19.8067 114.602 19.6804 114.943 19.596 115.334C19.5209 115.726 19.4831 116.16 19.4826 116.636L19.481 118.232C19.4805 118.708 19.5174 119.142 19.5916 119.534C19.6752 119.927 19.8009 120.267 19.9686 120.557C20.1363 120.846 20.3554 121.071 20.6259 121.23C20.8964 121.388 21.223 121.468 21.6056 121.469ZM27.705 120.691C28.0036 120.691 28.2182 120.771 28.3487 120.93C28.4886 121.079 28.5584 121.275 28.5581 121.518L28.5579 121.714C28.5575 122.096 28.4451 122.516 28.2206 122.973C27.9961 123.44 27.6831 123.845 27.2814 124.19L26.3434 124.189C26.6237 123.891 26.848 123.607 27.0163 123.336C27.1939 123.075 27.3202 122.781 27.3952 122.455C27.2085 122.408 27.0686 122.319 26.9754 122.188C26.8916 122.057 26.8497 121.899 26.8499 121.712L26.8501 121.516C26.8504 121.273 26.9159 121.077 27.0467 120.928C27.1869 120.77 27.4063 120.691 27.705 120.691ZM33.8136 122.503C32.6469 122.502 31.7934 122.058 31.2529 121.171C30.7219 120.283 30.4571 119.042 30.4588 117.446C30.4604 115.85 30.7277 114.609 31.2606 113.723C31.8029 112.836 32.6573 112.394 33.824 112.395C34.9907 112.396 35.8395 112.841 36.3706 113.728C36.911 114.615 37.1804 115.857 37.1788 117.453C37.1771 119.049 36.9052 120.29 36.3629 121.176C35.83 122.062 34.9802 122.504 33.8136 122.503ZM33.8146 121.481C34.1973 121.482 34.524 121.403 34.7949 121.244C35.0657 121.086 35.2853 120.862 35.4536 120.573C35.6219 120.284 35.7435 119.943 35.8186 119.551C35.903 119.159 35.9455 118.725 35.946 118.249L35.9476 116.653C35.9481 116.177 35.9065 115.743 35.8229 115.351C35.7487 114.959 35.6277 114.618 35.46 114.329C35.2923 114.039 35.0732 113.815 34.8027 113.656C34.5322 113.497 34.2056 113.418 33.8229 113.417C33.4403 113.417 33.1135 113.496 32.8427 113.654C32.5719 113.813 32.3523 114.036 32.184 114.325C32.0157 114.615 31.8894 114.955 31.8049 115.347C31.7299 115.739 31.6921 116.173 31.6916 116.649L31.69 118.245C31.6895 118.721 31.7264 119.155 31.8006 119.547C31.8842 119.939 32.0099 120.28 32.1776 120.569C32.3453 120.859 32.5644 121.083 32.8349 121.242C33.1054 121.401 33.432 121.481 33.8146 121.481Z" fill="#CCC3D9"/>
    <path d="M1.84771 184.341L1.84878 183.305L4.57878 183.308L4.58689 175.44L4.48889 175.44L2.02253 177.734L1.33729 176.991L3.92979 174.572L5.76379 174.573L5.75478 183.309L8.27478 183.312L8.27371 184.348L1.84771 184.341ZM15.9912 175.62L11.7072 175.616L11.4234 179.339L11.5214 179.339C11.7551 179.013 12.0167 178.752 12.3062 178.556C12.6051 178.36 13.0112 178.263 13.5245 178.263C13.9445 178.264 14.3318 178.334 14.6863 178.475C15.0408 178.615 15.3486 178.816 15.6097 179.078C15.8708 179.33 16.0711 179.643 16.2107 180.016C16.3597 180.39 16.4339 180.814 16.4334 181.29C16.4329 181.766 16.3578 182.205 16.208 182.606C16.0583 182.998 15.8386 183.338 15.549 183.627C15.2687 183.907 14.9231 184.126 14.5123 184.284C14.1108 184.443 13.6534 184.522 13.1401 184.521C12.7294 184.521 12.3654 184.474 12.0482 184.38C11.7403 184.286 11.4651 184.16 11.2226 184.001C10.9801 183.842 10.7656 183.665 10.5791 183.468C10.402 183.272 10.2389 183.067 10.0898 182.852L10.9725 182.181C11.0936 182.377 11.2194 182.554 11.3499 182.713C11.4898 182.872 11.639 183.007 11.7975 183.12C11.9654 183.232 12.1566 183.321 12.3712 183.386C12.5858 183.442 12.8425 183.471 13.1411 183.471C13.8131 183.472 14.322 183.295 14.6677 182.941C15.0134 182.586 15.1866 182.087 15.1872 181.443L15.1874 181.303C15.188 180.659 15.0159 180.16 14.6709 179.805C14.326 179.45 13.8175 179.272 13.1455 179.271C12.6975 179.271 12.3427 179.354 12.0812 179.522C11.8291 179.68 11.6002 179.871 11.3946 180.095L10.4008 179.954L10.7563 174.579L15.9923 174.584L15.9912 175.62ZM21.6046 184.53C20.4379 184.529 19.5844 184.084 19.044 183.197C18.5129 182.31 18.2482 181.068 18.2498 179.472C18.2515 177.876 18.5187 176.635 19.0516 175.749C19.5939 174.863 20.4483 174.421 21.615 174.422C22.7817 174.423 23.6306 174.867 24.1616 175.754C24.7021 176.642 24.9714 177.883 24.9698 179.479C24.9682 181.075 24.6962 182.316 24.154 183.202C23.621 184.088 22.7713 184.531 21.6046 184.53ZM21.6056 183.508C21.9883 183.508 22.3151 183.429 22.5859 183.271C22.8567 183.112 23.0763 182.889 23.2446 182.599C23.4129 182.31 23.5346 181.97 23.6096 181.578C23.694 181.186 23.7365 180.752 23.737 180.276L23.7386 178.68C23.7391 178.204 23.6976 177.77 23.614 177.378C23.5397 176.986 23.4187 176.645 23.251 176.355C23.0833 176.066 22.8642 175.842 22.5937 175.683C22.3232 175.524 21.9966 175.444 21.614 175.444C21.2313 175.443 20.9045 175.522 20.6337 175.681C20.3629 175.839 20.1433 176.063 19.975 176.352C19.8067 176.641 19.6804 176.982 19.596 177.374C19.5209 177.766 19.4831 178.2 19.4826 178.676L19.481 180.272C19.4805 180.748 19.5174 181.182 19.5916 181.574C19.6752 181.966 19.8009 182.307 19.9686 182.596C20.1363 182.886 20.3554 183.11 20.6259 183.269C20.8964 183.428 21.223 183.507 21.6056 183.508ZM27.705 182.73C28.0036 182.73 28.2182 182.81 28.3487 182.969C28.4886 183.118 28.5584 183.314 28.5581 183.557L28.5579 183.753C28.5575 184.136 28.4451 184.555 28.2206 185.013C27.9961 185.479 27.6831 185.885 27.2814 186.23L26.3434 186.229C26.6237 185.93 26.848 185.646 27.0163 185.375C27.1939 185.114 27.3202 184.82 27.3952 184.494C27.2085 184.447 27.0686 184.358 26.9754 184.227C26.8916 184.097 26.8497 183.938 26.8499 183.751L26.8501 183.555C26.8504 183.312 26.9159 183.117 27.0467 182.967C27.1869 182.809 27.4063 182.73 27.705 182.73ZM33.8136 184.542C32.6469 184.541 31.7934 184.097 31.2529 183.21C30.7219 182.322 30.4571 181.081 30.4588 179.485C30.4604 177.889 30.7277 176.648 31.2606 175.762C31.8029 174.876 32.6573 174.433 33.824 174.434C34.9907 174.436 35.8395 174.88 36.3706 175.767C36.911 176.654 37.1804 177.896 37.1788 179.492C37.1771 181.088 36.9052 182.329 36.3629 183.215C35.83 184.101 34.9802 184.544 33.8136 184.542ZM33.8146 183.52C34.1973 183.521 34.524 183.442 34.7949 183.283C35.0657 183.125 35.2853 182.901 35.4536 182.612C35.6219 182.323 35.7435 181.982 35.8186 181.59C35.903 181.198 35.9455 180.765 35.946 180.289L35.9476 178.693C35.9481 178.217 35.9065 177.782 35.8229 177.39C35.7487 176.998 35.6277 176.658 35.46 176.368C35.2923 176.079 35.0732 175.854 34.8027 175.695C34.5322 175.536 34.2056 175.457 33.8229 175.456C33.4403 175.456 33.1135 175.535 32.8427 175.693C32.5719 175.852 32.3523 176.075 32.184 176.365C32.0157 176.654 31.8894 176.994 31.8049 177.386C31.7299 177.778 31.6921 178.212 31.6916 178.688L31.69 180.284C31.6895 180.76 31.7264 181.194 31.8006 181.586C31.8842 181.978 32.0099 182.319 32.1776 182.609C32.3453 182.898 32.5644 183.122 32.8349 183.281C33.1054 183.44 33.432 183.52 33.8146 183.52Z" fill="#CCC3D9"/>
    <path d="M1.84771 246.381L1.84878 245.345L4.57878 245.347L4.58689 237.479L4.48889 237.479L2.02253 239.773L1.33729 239.03L3.92979 236.611L5.76379 236.613L5.75478 245.349L8.27478 245.351L8.27371 246.387L1.84771 246.381ZM13.2101 246.56C12.0434 246.559 11.1899 246.115 10.6494 245.228C10.1184 244.34 9.85363 243.099 9.85528 241.503C9.85692 239.907 10.1242 238.666 10.6571 237.78C11.1994 236.894 12.0538 236.451 13.2205 236.452C14.3872 236.453 15.236 236.898 15.7671 237.785C16.3075 238.672 16.5769 239.914 16.5753 241.51C16.5736 243.106 16.3017 244.347 15.7594 245.233C15.2265 246.119 14.3767 246.561 13.2101 246.56ZM13.2111 245.538C13.5938 245.539 13.9205 245.46 14.1914 245.301C14.4622 245.143 14.6818 244.919 14.8501 244.63C15.0184 244.341 15.14 244 15.2151 243.608C15.2995 243.216 15.342 242.782 15.3425 242.306L15.3441 240.71C15.3446 240.234 15.303 239.8 15.2194 239.408C15.1452 239.016 15.0242 238.675 14.8565 238.386C14.6888 238.096 14.4697 237.872 14.1992 237.713C13.9287 237.554 13.6021 237.475 13.2194 237.474C12.8368 237.474 12.51 237.553 12.2392 237.711C11.9684 237.87 11.7488 238.093 11.5805 238.383C11.4122 238.672 11.2858 239.012 11.2014 239.404C11.1264 239.796 11.0886 240.23 11.0881 240.706L11.0865 242.302C11.086 242.778 11.1228 243.212 11.1971 243.604C11.2807 243.996 11.4064 244.337 11.5741 244.627C11.7418 244.916 11.9609 245.14 12.2314 245.299C12.5019 245.458 12.8285 245.538 13.2111 245.538ZM21.6046 246.569C20.4379 246.568 19.5844 246.124 19.044 245.236C18.5129 244.349 18.2482 243.107 18.2498 241.511C18.2515 239.915 18.5187 238.674 19.0516 237.788C19.5939 236.902 20.4483 236.46 21.615 236.461C22.7817 236.462 23.6306 236.906 24.1616 237.794C24.7021 238.681 24.9714 239.922 24.9698 241.518C24.9682 243.114 24.6962 244.355 24.154 245.242C23.621 246.128 22.7713 246.57 21.6046 246.569ZM21.6056 245.547C21.9883 245.547 22.3151 245.468 22.5859 245.31C22.8567 245.152 23.0763 244.928 23.2446 244.639C23.4129 244.349 23.5346 244.009 23.6096 243.617C23.694 243.225 23.7365 242.791 23.737 242.315L23.7386 240.719C23.7391 240.243 23.6976 239.809 23.614 239.417C23.5397 239.025 23.4187 238.684 23.251 238.395C23.0833 238.105 22.8642 237.881 22.5937 237.722C22.3232 237.563 21.9966 237.483 21.614 237.483C21.2313 237.483 20.9045 237.562 20.6337 237.72C20.3629 237.878 20.1433 238.102 19.975 238.391C19.8067 238.68 19.6804 239.021 19.596 239.413C19.5209 239.805 19.4831 240.239 19.4826 240.715L19.481 242.311C19.4805 242.787 19.5174 243.221 19.5916 243.613C19.6752 244.005 19.8009 244.346 19.9686 244.635C20.1363 244.925 20.3554 245.149 20.6259 245.308C20.8964 245.467 21.223 245.547 21.6056 245.547ZM27.705 244.769C28.0036 244.77 28.2182 244.849 28.3487 245.008C28.4886 245.157 28.5584 245.353 28.5581 245.596L28.5579 245.792C28.5575 246.175 28.4451 246.595 28.2206 247.052C27.9961 247.518 27.6831 247.924 27.2814 248.269L26.3434 248.268C26.6237 247.969 26.848 247.685 27.0163 247.415C27.1939 247.153 27.3202 246.859 27.3952 246.533C27.2085 246.486 27.0686 246.397 26.9754 246.266C26.8916 246.136 26.8497 245.977 26.8499 245.79L26.8501 245.594C26.8504 245.352 26.9159 245.156 27.0467 245.007C27.1869 244.848 27.4063 244.769 27.705 244.769ZM33.8136 246.582C32.6469 246.58 31.7934 246.136 31.2529 245.249C30.7219 244.362 30.4571 243.12 30.4588 241.524C30.4604 239.928 30.7277 238.687 31.2606 237.801C31.8029 236.915 32.6573 236.472 33.824 236.474C34.9907 236.475 35.8395 236.919 36.3706 237.806C36.911 238.693 37.1804 239.935 37.1788 241.531C37.1771 243.127 36.9052 244.368 36.3629 245.254C35.83 246.14 34.9802 246.583 33.8136 246.582ZM33.8146 245.56C34.1973 245.56 34.524 245.481 34.7949 245.323C35.0657 245.164 35.2853 244.94 35.4536 244.651C35.6219 244.362 35.7435 244.022 35.8186 243.63C35.903 243.238 35.9455 242.804 35.946 242.328L35.9476 240.732C35.9481 240.256 35.9065 239.822 35.8229 239.43C35.7487 239.038 35.6277 238.697 35.46 238.407C35.2923 238.118 35.0732 237.893 34.8027 237.735C34.5322 237.576 34.2056 237.496 33.8229 237.496C33.4403 237.495 33.1135 237.574 32.8427 237.733C32.5719 237.891 32.3523 238.115 32.184 238.404C32.0157 238.693 31.8894 239.034 31.8049 239.425C31.7299 239.817 31.6921 240.251 31.6916 240.727L31.69 242.323C31.6895 242.799 31.7264 243.233 31.8006 243.625C31.8842 244.018 32.0099 244.358 32.1776 244.648C32.3453 244.937 32.5644 245.162 32.8349 245.321C33.1054 245.479 33.432 245.559 33.8146 245.56Z" fill="#CCC3D9"/>
    <path d="M15.9913 299.689L11.7073 299.685L11.4234 303.408L11.5214 303.408C11.7551 303.082 12.0167 302.821 12.3062 302.625C12.6051 302.43 13.0112 302.332 13.5245 302.332C13.9445 302.333 14.3318 302.403 14.6863 302.544C15.0408 302.684 15.3486 302.885 15.6097 303.147C15.8708 303.399 16.0711 303.712 16.2107 304.085C16.3597 304.459 16.4339 304.883 16.4334 305.359C16.4329 305.835 16.3578 306.274 16.208 306.675C16.0583 307.067 15.8386 307.408 15.549 307.697C15.2687 307.976 14.9231 308.195 14.5123 308.354C14.1108 308.512 13.6534 308.591 13.1401 308.59C12.7294 308.59 12.3654 308.543 12.0482 308.449C11.7403 308.355 11.4651 308.229 11.2226 308.07C10.9801 307.911 10.7656 307.734 10.5792 307.537C10.402 307.341 10.2389 307.136 10.0898 306.921L10.9725 306.25C11.0936 306.446 11.2194 306.623 11.3499 306.782C11.4898 306.941 11.639 307.077 11.7975 307.189C11.9654 307.301 12.1566 307.39 12.3712 307.455C12.5858 307.512 12.8425 307.54 13.1412 307.54C13.8132 307.541 14.322 307.364 14.6677 307.01C15.0134 306.655 15.1866 306.156 15.1872 305.512L15.1874 305.372C15.1881 304.728 15.0159 304.229 14.6709 303.874C14.326 303.519 13.8175 303.341 13.1455 303.34C12.6975 303.34 12.3427 303.423 12.0812 303.591C11.8291 303.749 11.6002 303.941 11.3946 304.164L10.4008 304.023L10.7563 298.648L15.9923 298.653L15.9913 299.689ZM21.6046 308.599C20.4379 308.598 19.5844 308.153 19.044 307.266C18.5129 306.379 18.2482 305.137 18.2498 303.541C18.2515 301.945 18.5187 300.704 19.0516 299.818C19.5939 298.932 20.4484 298.49 21.615 298.491C22.7817 298.492 23.6306 298.936 24.1616 299.823C24.7021 300.711 24.9715 301.952 24.9698 303.548C24.9682 305.144 24.6962 306.385 24.154 307.271C23.6211 308.158 22.7713 308.6 21.6046 308.599ZM21.6056 307.577C21.9883 307.577 22.3151 307.498 22.5859 307.34C22.8567 307.181 23.0763 306.958 23.2446 306.669C23.4129 306.379 23.5346 306.039 23.6096 305.647C23.694 305.255 23.7365 304.821 23.737 304.345L23.7386 302.749C23.7391 302.273 23.6976 301.839 23.614 301.447C23.5397 301.055 23.4187 300.714 23.251 300.425C23.0833 300.135 22.8642 299.911 22.5937 299.752C22.3232 299.593 21.9966 299.513 21.614 299.513C21.2313 299.512 20.9046 299.591 20.6337 299.75C20.3629 299.908 20.1433 300.132 19.975 300.421C19.8067 300.71 19.6804 301.051 19.596 301.443C19.5209 301.835 19.4831 302.269 19.4826 302.745L19.481 304.341C19.4805 304.817 19.5174 305.251 19.5916 305.643C19.6752 306.035 19.8009 306.376 19.9686 306.665C20.1363 306.955 20.3554 307.179 20.6259 307.338C20.8964 307.497 21.223 307.576 21.6056 307.577ZM27.705 306.799C28.0037 306.799 28.2182 306.879 28.3487 307.038C28.4886 307.187 28.5584 307.383 28.5581 307.626L28.5579 307.822C28.5575 308.205 28.4451 308.625 28.2206 309.082C27.9961 309.548 27.6831 309.954 27.2814 310.299L26.3434 310.298C26.6237 309.999 26.848 309.715 27.0163 309.444C27.1939 309.183 27.3202 308.889 27.3952 308.563C27.2085 308.516 27.0686 308.427 26.9754 308.296C26.8916 308.166 26.8497 308.007 26.8499 307.82L26.8501 307.624C26.8504 307.382 26.9159 307.186 27.0467 307.036C27.1869 306.878 27.4063 306.799 27.705 306.799ZM33.8136 308.611C32.6469 308.61 31.7934 308.166 31.2529 307.279C30.7219 306.392 30.4571 305.15 30.4588 303.554C30.4604 301.958 30.7277 300.717 31.2606 299.831C31.8029 298.945 32.6573 298.502 33.824 298.503C34.9907 298.505 35.8395 298.949 36.3706 299.836C36.911 300.723 37.1804 301.965 37.1788 303.561C37.1771 305.157 36.9052 306.398 36.3629 307.284C35.83 308.17 34.9802 308.613 33.8136 308.611ZM33.8146 307.589C34.1973 307.59 34.524 307.511 34.7949 307.352C35.0657 307.194 35.2853 306.97 35.4536 306.681C35.6219 306.392 35.7435 306.051 35.8186 305.659C35.903 305.268 35.9455 304.834 35.946 304.358L35.9476 302.762C35.9481 302.286 35.9065 301.852 35.823 301.459C35.7487 301.067 35.6277 300.727 35.46 300.437C35.2923 300.148 35.0732 299.923 34.8027 299.764C34.5322 299.605 34.2056 299.526 33.8229 299.525C33.4403 299.525 33.1135 299.604 32.8427 299.762C32.5719 299.921 32.3523 300.145 32.184 300.434C32.0157 300.723 31.8894 301.063 31.805 301.455C31.7299 301.847 31.6921 302.281 31.6916 302.757L31.69 304.353C31.6895 304.829 31.7264 305.263 31.8006 305.655C31.8842 306.047 32.0099 306.388 32.1776 306.678C32.3453 306.967 32.5644 307.191 32.8349 307.35C33.1054 307.509 33.432 307.589 33.8146 307.589Z" fill="#CCC3D9"/>
    <path d="M73.0758 329.01L66.6638 329.003L66.665 327.799L69.86 324.863C70.3178 324.443 70.7009 324 71.0094 323.534C71.3179 323.058 71.4724 322.582 71.4729 322.106L71.473 321.938C71.4736 321.397 71.3247 320.958 71.0264 320.622C70.7281 320.286 70.2756 320.117 69.6689 320.116C69.3703 320.116 69.1089 320.158 68.8848 320.242C68.6607 320.325 68.4646 320.442 68.2964 320.591C68.1376 320.74 68.0021 320.917 67.8899 321.123C67.787 321.319 67.7028 321.533 67.6372 321.766L66.5876 321.359C66.6813 321.07 66.8076 320.79 66.9665 320.52C67.1348 320.24 67.3404 319.993 67.5833 319.778C67.8355 319.564 68.1343 319.392 68.4798 319.261C68.8346 319.131 69.25 319.066 69.726 319.067C70.202 319.067 70.6266 319.137 70.9998 319.278C71.373 319.418 71.6854 319.615 71.9372 319.867C72.1889 320.119 72.3799 320.418 72.5103 320.763C72.6499 321.109 72.7195 321.492 72.7191 321.912C72.7187 322.294 72.6623 322.649 72.55 322.975C72.447 323.302 72.302 323.615 72.115 323.913C71.928 324.202 71.6991 324.487 71.4281 324.766C71.1665 325.046 70.8816 325.326 70.5733 325.605L67.9388 327.969L73.0768 327.974L73.0758 329.01ZM78.2081 329.183C77.0414 329.182 76.1879 328.738 75.6475 327.851C75.1164 326.963 74.8517 325.722 74.8533 324.126C74.855 322.53 75.1223 321.289 75.6552 320.403C76.1974 319.517 77.0519 319.074 78.2185 319.075C79.3852 319.076 80.2341 319.521 80.7652 320.408C81.3056 321.295 81.575 322.537 81.5733 324.133C81.5717 325.729 81.2997 326.97 80.7575 327.856C80.2246 328.742 79.3748 329.184 78.2081 329.183ZM78.2092 328.161C78.5918 328.162 78.9186 328.083 79.1894 327.924C79.4602 327.766 79.6798 327.542 79.8481 327.253C80.0164 326.964 80.1381 326.623 80.2132 326.231C80.2976 325.839 80.34 325.405 80.3405 324.929L80.3421 323.333C80.3426 322.857 80.3011 322.423 80.2175 322.031C80.1432 321.639 80.0222 321.298 79.8545 321.009C79.6868 320.719 79.4677 320.495 79.1972 320.336C78.9267 320.177 78.6001 320.098 78.2175 320.097C77.8348 320.097 77.5081 320.176 77.2372 320.334C76.9664 320.493 76.7468 320.716 76.5785 321.006C76.4102 321.295 76.2839 321.635 76.1995 322.027C76.1244 322.419 76.0866 322.853 76.0861 323.329L76.0845 324.925C76.084 325.401 76.1209 325.835 76.1952 326.227C76.2788 326.619 76.4044 326.96 76.5721 327.25C76.7398 327.539 76.9589 327.763 77.2294 327.922C77.4999 328.081 77.8265 328.161 78.2092 328.161ZM83.6348 329.021L83.6359 327.985L86.3659 327.988L86.374 320.12L86.276 320.12L83.8096 322.413L83.1244 321.67L85.7169 319.251L87.5509 319.253L87.5419 327.989L90.0619 327.991L90.0608 329.027L83.6348 329.021ZM95.0112 329.201C94.5072 329.2 94.0499 329.116 93.6394 328.947C93.2383 328.769 92.8932 328.522 92.6042 328.204C92.3245 327.877 92.1103 327.48 91.9614 327.013C91.8126 326.547 91.7384 326.024 91.739 325.445C91.7398 324.717 91.8478 324.036 92.0631 323.402C92.2785 322.758 92.5544 322.175 92.8909 321.652C93.2368 321.121 93.6153 320.654 94.0264 320.254C94.4375 319.843 94.8392 319.512 95.2314 319.261L96.7434 319.262C96.2204 319.645 95.7533 320.017 95.3423 320.381C94.9312 320.745 94.5715 321.127 94.2631 321.528C93.9547 321.92 93.6929 322.344 93.4778 322.801C93.2626 323.249 93.0894 323.757 92.9582 324.326L93.0282 324.355C93.2619 323.953 93.5609 323.622 93.9252 323.361C94.2988 323.091 94.7843 322.956 95.3816 322.957C95.8016 322.957 96.1889 323.028 96.5434 323.168C96.8979 323.309 97.201 323.51 97.4528 323.771C97.7045 324.033 97.9002 324.35 98.0398 324.724C98.1887 325.097 98.263 325.513 98.2625 325.97C98.262 326.446 98.1822 326.885 98.0231 327.286C97.8734 327.678 97.6537 328.018 97.3641 328.307C97.0838 328.587 96.7429 328.806 96.3414 328.964C95.9399 329.122 95.4965 329.201 95.0112 329.201ZM94.9982 328.179C95.6422 328.179 96.1417 328.002 96.4968 327.648C96.8611 327.294 97.0437 326.785 97.0443 326.123L97.0445 326.011C97.0451 325.348 96.8637 324.839 96.5 324.484C96.1457 324.129 95.6466 323.951 95.0026 323.951C94.3586 323.95 93.8544 324.127 93.49 324.481C93.135 324.835 92.9571 325.344 92.9565 326.006L92.9563 326.118C92.9557 326.781 93.1325 327.29 93.4868 327.645C93.8504 328 94.3542 328.178 94.9982 328.179Z" fill="#CCC3D9"/>
    <path d="M133.076 276.01L126.664 276.003L126.665 274.799L129.86 271.863C130.318 271.443 130.701 271 131.009 270.534C131.318 270.058 131.472 269.582 131.473 269.106L131.473 268.938C131.474 268.397 131.325 267.958 131.026 267.622C130.728 267.286 130.276 267.117 129.669 267.116C129.37 267.116 129.109 267.158 128.885 267.242C128.661 267.325 128.465 267.442 128.296 267.591C128.138 267.74 128.002 267.917 127.89 268.123C127.787 268.319 127.703 268.533 127.637 268.766L126.588 268.359C126.681 268.07 126.808 267.79 126.967 267.52C127.135 267.24 127.34 266.993 127.583 266.778C127.835 266.564 128.134 266.392 128.48 266.261C128.835 266.131 129.25 266.066 129.726 266.067C130.202 266.067 130.627 266.137 131 266.278C131.373 266.418 131.685 266.615 131.937 266.867C132.189 267.119 132.38 267.418 132.51 267.763C132.65 268.109 132.72 268.492 132.719 268.912C132.719 269.294 132.662 269.649 132.55 269.975C132.447 270.302 132.302 270.615 132.115 270.913C131.928 271.202 131.699 271.487 131.428 271.766C131.167 272.046 130.882 272.326 130.573 272.605L127.939 274.969L133.077 274.974L133.076 276.01ZM138.208 276.183C137.041 276.182 136.188 275.738 135.647 274.851C135.116 273.963 134.852 272.722 134.853 271.126C134.855 269.53 135.122 268.289 135.655 267.403C136.197 266.517 137.052 266.074 138.219 266.075C139.385 266.076 140.234 266.521 140.765 267.408C141.306 268.295 141.575 269.537 141.573 271.133C141.572 272.729 141.3 273.97 140.757 274.856C140.225 275.742 139.375 276.184 138.208 276.183ZM138.209 275.161C138.592 275.162 138.919 275.083 139.189 274.924C139.46 274.766 139.68 274.542 139.848 274.253C140.016 273.964 140.138 273.623 140.213 273.231C140.298 272.839 140.34 272.405 140.34 271.929L140.342 270.333C140.343 269.857 140.301 269.423 140.217 269.031C140.143 268.639 140.022 268.298 139.855 268.009C139.687 267.719 139.468 267.495 139.197 267.336C138.927 267.177 138.6 267.098 138.217 267.097C137.835 267.097 137.508 267.176 137.237 267.334C136.966 267.493 136.747 267.716 136.579 268.006C136.41 268.295 136.284 268.635 136.199 269.027C136.124 269.419 136.087 269.853 136.086 270.329L136.085 271.925C136.084 272.401 136.121 272.835 136.195 273.227C136.279 273.619 136.404 273.96 136.572 274.25C136.74 274.539 136.959 274.763 137.229 274.922C137.5 275.081 137.826 275.161 138.209 275.161ZM143.635 276.021L143.636 274.985L146.366 274.988L146.374 267.12L146.276 267.12L143.81 269.413L143.124 268.67L145.717 266.251L147.551 266.253L147.542 274.989L150.062 274.991L150.061 276.027L143.635 276.021ZM153.247 276.031L156.994 267.271L152.822 267.266L152.821 269.086L151.771 269.085L151.773 266.257L158.185 266.264L158.184 267.3L154.507 276.032L153.247 276.031Z" fill="#CCC3D9"/>
    <path d="M168.076 191.01L161.664 191.003L161.665 189.799L164.86 186.863C165.318 186.443 165.701 186 166.009 185.534C166.318 185.058 166.472 184.582 166.473 184.106L166.473 183.938C166.474 183.397 166.325 182.958 166.026 182.622C165.728 182.286 165.276 182.117 164.669 182.116C164.37 182.116 164.109 182.158 163.885 182.242C163.661 182.325 163.465 182.442 163.296 182.591C163.138 182.74 163.002 182.917 162.89 183.123C162.787 183.319 162.703 183.533 162.637 183.766L161.588 183.359C161.681 183.07 161.808 182.79 161.967 182.52C162.135 182.24 162.34 181.993 162.583 181.778C162.835 181.564 163.134 181.392 163.48 181.261C163.835 181.131 164.25 181.066 164.726 181.067C165.202 181.067 165.627 181.137 166 181.278C166.373 181.418 166.685 181.615 166.937 181.867C167.189 182.119 167.38 182.418 167.51 182.763C167.65 183.109 167.72 183.492 167.719 183.912C167.719 184.294 167.662 184.649 167.55 184.975C167.447 185.302 167.302 185.615 167.115 185.913C166.928 186.202 166.699 186.487 166.428 186.766C166.167 187.046 165.882 187.326 165.573 187.605L162.939 189.969L168.077 189.974L168.076 191.01ZM173.208 191.183C172.041 191.182 171.188 190.738 170.647 189.851C170.116 188.963 169.852 187.722 169.853 186.126C169.855 184.53 170.122 183.289 170.655 182.403C171.197 181.517 172.052 181.074 173.219 181.075C174.385 181.076 175.234 181.521 175.765 182.408C176.306 183.295 176.575 184.537 176.573 186.133C176.572 187.729 176.3 188.97 175.757 189.856C175.225 190.742 174.375 191.184 173.208 191.183ZM173.209 190.161C173.592 190.162 173.919 190.083 174.189 189.924C174.46 189.766 174.68 189.542 174.848 189.253C175.016 188.964 175.138 188.623 175.213 188.231C175.298 187.839 175.34 187.405 175.34 186.929L175.342 185.333C175.343 184.857 175.301 184.423 175.217 184.031C175.143 183.639 175.022 183.298 174.855 183.009C174.687 182.719 174.468 182.495 174.197 182.336C173.927 182.177 173.6 182.098 173.217 182.097C172.835 182.097 172.508 182.176 172.237 182.334C171.966 182.493 171.747 182.716 171.579 183.006C171.41 183.295 171.284 183.635 171.199 184.027C171.124 184.419 171.087 184.853 171.086 185.329L171.085 186.925C171.084 187.401 171.121 187.835 171.195 188.227C171.279 188.619 171.404 188.96 171.572 189.25C171.74 189.539 171.959 189.763 172.229 189.922C172.5 190.081 172.826 190.161 173.209 190.161ZM178.635 191.021L178.636 189.985L181.366 189.988L181.374 182.12L181.276 182.12L178.81 184.413L178.124 183.67L180.717 181.251L182.551 181.253L182.542 189.989L185.062 189.991L185.061 191.027L178.635 191.021ZM189.997 191.201C189.437 191.2 188.947 191.13 188.527 190.989C188.108 190.839 187.753 190.638 187.464 190.386C187.184 190.134 186.97 189.835 186.821 189.489C186.681 189.144 186.612 188.77 186.612 188.369C186.613 187.697 186.795 187.165 187.16 186.774C187.524 186.382 188 186.107 188.589 185.949L188.589 185.837C188.076 185.659 187.665 185.374 187.358 184.982C187.059 184.58 186.91 184.099 186.911 183.539C186.912 182.793 187.183 182.2 187.725 181.762C188.267 181.315 189.028 181.092 190.008 181.093C190.988 181.094 191.748 181.318 192.289 181.767C192.83 182.206 193.1 182.799 193.099 183.546C193.098 184.106 192.944 184.586 192.636 184.987C192.337 185.379 191.93 185.663 191.417 185.84L191.417 185.952C192.004 186.111 192.48 186.387 192.844 186.78C193.207 187.172 193.389 187.704 193.388 188.376C193.388 188.777 193.313 189.151 193.163 189.496C193.023 189.841 192.808 190.139 192.518 190.391C192.238 190.643 191.888 190.843 191.467 190.992C191.047 191.132 190.557 191.201 189.997 191.201ZM189.998 190.179C190.68 190.179 191.207 190.031 191.581 189.732C191.954 189.425 192.141 188.991 192.142 188.431L192.142 188.137C192.143 187.577 191.957 187.147 191.584 186.848C191.211 186.54 190.683 186.385 190.002 186.385C189.321 186.384 188.793 186.537 188.42 186.845C188.046 187.143 187.859 187.572 187.858 188.132L187.858 188.426C187.857 188.986 188.044 189.421 188.417 189.729C188.79 190.028 189.317 190.178 189.998 190.179ZM190.003 185.405C190.619 185.405 191.086 185.275 191.404 185.014C191.721 184.753 191.88 184.371 191.881 183.867L191.881 183.657C191.881 183.153 191.723 182.77 191.406 182.508C191.089 182.246 190.623 182.115 190.007 182.115C189.391 182.114 188.924 182.244 188.606 182.505C188.289 182.766 188.129 183.149 188.129 183.653L188.129 183.863C188.128 184.367 188.286 184.749 188.604 185.011C188.921 185.273 189.387 185.404 190.003 185.405Z" fill="#CCC3D9"/>
    <path d="M209.103 112.01L202.691 112.003L202.692 110.799L205.887 107.863C206.345 107.443 206.728 107 207.036 106.534C207.345 106.058 207.499 105.582 207.5 105.106L207.5 104.938C207.5 104.397 207.352 103.958 207.053 103.622C206.755 103.286 206.302 103.117 205.696 103.116C205.397 103.116 205.136 103.158 204.912 103.242C204.688 103.325 204.491 103.442 204.323 103.591C204.164 103.74 204.029 103.917 203.917 104.123C203.814 104.319 203.73 104.533 203.664 104.766L202.614 104.359C202.708 104.07 202.834 103.79 202.993 103.52C203.162 103.24 203.367 102.993 203.61 102.778C203.862 102.564 204.161 102.392 204.507 102.261C204.861 102.131 205.277 102.066 205.753 102.067C206.229 102.067 206.653 102.137 207.027 102.278C207.4 102.418 207.712 102.615 207.964 102.867C208.216 103.119 208.407 103.418 208.537 103.763C208.677 104.109 208.746 104.492 208.746 104.912C208.746 105.294 208.689 105.649 208.577 105.975C208.474 106.302 208.329 106.615 208.142 106.913C207.955 107.202 207.726 107.487 207.455 107.766C207.193 108.046 206.908 108.326 206.6 108.605L203.966 110.969L209.104 110.974L209.103 112.01ZM214.235 112.183C213.068 112.182 212.215 111.738 211.674 110.851C211.143 109.963 210.879 108.722 210.88 107.126C210.882 105.53 211.149 104.289 211.682 103.403C212.224 102.517 213.079 102.074 214.245 102.075C215.412 102.076 216.261 102.521 216.792 103.408C217.332 104.295 217.602 105.537 217.6 107.133C217.599 108.729 217.327 109.97 216.784 110.856C216.251 111.742 215.402 112.184 214.235 112.183ZM214.236 111.161C214.619 111.162 214.945 111.083 215.216 110.924C215.487 110.766 215.707 110.542 215.875 110.253C216.043 109.964 216.165 109.623 216.24 109.231C216.324 108.839 216.367 108.405 216.367 107.929L216.369 106.333C216.369 105.857 216.328 105.423 216.244 105.031C216.17 104.639 216.049 104.298 215.881 104.009C215.714 103.719 215.495 103.495 215.224 103.336C214.954 103.177 214.627 103.098 214.244 103.097C213.862 103.097 213.535 103.176 213.264 103.334C212.993 103.493 212.774 103.716 212.605 104.006C212.437 104.295 212.311 104.635 212.226 105.027C212.151 105.419 212.113 105.853 212.113 106.329L212.111 107.925C212.111 108.401 212.148 108.835 212.222 109.227C212.306 109.619 212.431 109.96 212.599 110.25C212.767 110.539 212.986 110.763 213.256 110.922C213.527 111.081 213.853 111.161 214.236 111.161ZM219.662 112.021L219.663 110.985L222.393 110.988L222.401 103.12L222.303 103.12L219.836 105.413L219.151 104.67L221.744 102.251L223.578 102.253L223.569 110.989L226.089 110.991L226.088 112.027L219.662 112.021ZM234.293 105.848C234.292 106.576 234.184 107.262 233.968 107.906C233.753 108.54 233.473 109.123 233.127 109.655C232.79 110.177 232.416 110.643 232.005 111.054C231.594 111.455 231.192 111.781 230.8 112.032L229.288 112.031C229.811 111.649 230.278 111.276 230.689 110.912C231.1 110.549 231.46 110.171 231.769 109.779C232.077 109.378 232.339 108.954 232.554 108.506C232.769 108.049 232.942 107.536 233.073 106.967L233.003 106.939C232.77 107.34 232.466 107.675 232.092 107.946C231.728 108.207 231.247 108.337 230.65 108.336C230.23 108.336 229.843 108.265 229.488 108.125C229.134 107.985 228.831 107.784 228.579 107.522C228.327 107.26 228.127 106.948 227.978 106.583C227.838 106.21 227.769 105.79 227.769 105.323C227.77 104.847 227.845 104.413 227.994 104.021C228.154 103.62 228.373 103.28 228.654 103C228.943 102.711 229.284 102.487 229.676 102.329C230.078 102.171 230.526 102.092 231.02 102.093C231.524 102.093 231.977 102.182 232.378 102.36C232.789 102.528 233.134 102.776 233.413 103.103C233.702 103.421 233.921 103.813 234.07 104.28C234.219 104.747 234.293 105.269 234.293 105.848ZM231.029 107.343C231.673 107.343 232.173 107.166 232.528 106.812C232.892 106.458 233.074 105.949 233.075 105.287L233.075 105.175C233.076 104.512 232.894 104.003 232.531 103.648C232.177 103.293 231.677 103.115 231.033 103.115C230.389 103.114 229.885 103.291 229.521 103.645C229.166 103.999 228.988 104.508 228.987 105.17L228.987 105.282C228.986 105.945 229.163 106.454 229.518 106.809C229.881 107.164 230.385 107.342 231.029 107.343Z" fill="#CCC3D9"/>
    <path d="M268.681 119.008L262.269 119.001L262.27 117.797L265.465 114.861C265.923 114.441 266.306 113.998 266.615 113.532C266.923 113.056 267.078 112.58 267.078 112.104L267.079 111.936C267.079 111.395 266.93 110.956 266.632 110.62C266.334 110.283 265.881 110.115 265.274 110.114C264.976 110.114 264.714 110.156 264.49 110.24C264.266 110.323 264.07 110.44 263.902 110.589C263.743 110.738 263.608 110.915 263.495 111.121C263.392 111.316 263.308 111.531 263.243 111.764L262.193 111.357C262.287 111.068 262.413 110.788 262.572 110.518C262.74 110.238 262.946 109.991 263.189 109.776C263.441 109.562 263.74 109.389 264.085 109.259C264.44 109.129 264.855 109.064 265.331 109.064C265.807 109.065 266.232 109.135 266.605 109.276C266.978 109.416 267.291 109.612 267.543 109.865C267.794 110.117 267.985 110.416 268.116 110.761C268.255 111.107 268.325 111.49 268.325 111.91C268.324 112.292 268.268 112.647 268.155 112.973C268.052 113.3 267.907 113.612 267.72 113.911C267.534 114.2 267.305 114.484 267.034 114.764C266.772 115.044 266.487 115.324 266.179 115.603L263.544 117.967L268.682 117.972L268.681 119.008ZM273.814 119.181C272.647 119.18 271.793 118.736 271.253 117.849C270.722 116.961 270.457 115.72 270.459 114.124C270.46 112.528 270.728 111.287 271.261 110.401C271.803 109.514 272.657 109.072 273.824 109.073C274.991 109.074 275.84 109.519 276.371 110.406C276.911 111.293 277.18 112.535 277.179 114.131C277.177 115.727 276.905 116.968 276.363 117.854C275.83 118.74 274.98 119.182 273.814 119.181ZM273.815 118.159C274.197 118.16 274.524 118.081 274.795 117.922C275.066 117.764 275.285 117.54 275.454 117.251C275.622 116.962 275.744 116.621 275.819 116.229C275.903 115.837 275.945 115.403 275.946 114.927L275.948 113.331C275.948 112.855 275.907 112.421 275.823 112.029C275.749 111.637 275.628 111.296 275.46 111.007C275.292 110.717 275.073 110.493 274.803 110.334C274.532 110.175 274.206 110.096 273.823 110.095C273.44 110.095 273.114 110.174 272.843 110.332C272.572 110.491 272.352 110.714 272.184 111.004C272.016 111.293 271.889 111.633 271.805 112.025C271.73 112.417 271.692 112.851 271.692 113.327L271.69 114.923C271.689 115.399 271.726 115.833 271.801 116.225C271.884 116.617 272.01 116.958 272.178 117.248C272.345 117.537 272.564 117.761 272.835 117.92C273.105 118.079 273.432 118.159 273.815 118.159ZM285.47 119.025L279.058 119.019L279.06 117.815L282.255 114.878C282.712 114.458 283.095 114.015 283.404 113.549C283.712 113.073 283.867 112.598 283.867 112.122L283.868 111.954C283.868 111.412 283.719 110.973 283.421 110.637C283.123 110.301 282.67 110.132 282.063 110.132C281.765 110.131 281.503 110.173 281.279 110.257C281.055 110.341 280.859 110.457 280.691 110.606C280.532 110.755 280.397 110.933 280.284 111.138C280.182 111.334 280.097 111.548 280.032 111.782L278.982 111.375C279.076 111.085 279.202 110.805 279.361 110.535C279.529 110.255 279.735 110.008 279.978 109.794C280.23 109.579 280.529 109.407 280.874 109.276C281.229 109.146 281.645 109.081 282.121 109.082C282.597 109.082 283.021 109.153 283.394 109.293C283.768 109.433 284.08 109.63 284.332 109.882C284.583 110.134 284.774 110.433 284.905 110.779C285.044 111.124 285.114 111.507 285.114 111.927C285.113 112.31 285.057 112.664 284.945 112.991C284.841 113.317 284.697 113.63 284.51 113.928C284.323 114.217 284.094 114.502 283.823 114.782C283.561 115.061 283.276 115.341 282.968 115.621L280.333 117.984L285.471 117.989L285.47 119.025ZM290.603 119.199C289.436 119.197 288.582 118.753 288.042 117.866C287.511 116.979 287.246 115.737 287.248 114.141C287.249 112.545 287.517 111.304 288.05 110.418C288.592 109.532 289.446 109.089 290.613 109.091C291.78 109.092 292.629 109.536 293.16 110.423C293.7 111.31 293.969 112.552 293.968 114.148C293.966 115.744 293.694 116.985 293.152 117.871C292.619 118.757 291.769 119.2 290.603 119.199ZM290.604 118.177C290.986 118.177 291.313 118.098 291.584 117.94C291.855 117.781 292.074 117.557 292.243 117.268C292.411 116.979 292.533 116.639 292.608 116.247C292.692 115.855 292.735 115.421 292.735 114.945L292.737 113.349C292.737 112.873 292.696 112.439 292.612 112.047C292.538 111.655 292.417 111.314 292.249 111.024C292.081 110.735 291.862 110.51 291.592 110.352C291.321 110.193 290.995 110.113 290.612 110.113C290.229 110.112 289.903 110.191 289.632 110.35C289.361 110.508 289.141 110.732 288.973 111.021C288.805 111.31 288.678 111.651 288.594 112.042C288.519 112.434 288.481 112.868 288.481 113.344L288.479 114.94C288.479 115.416 288.515 115.85 288.59 116.242C288.673 116.635 288.799 116.975 288.967 117.265C289.134 117.554 289.353 117.779 289.624 117.938C289.894 118.096 290.221 118.176 290.604 118.177Z" fill="#CCC3D9"/>
    <path d="M310.102 140.01L303.69 140.003L303.692 138.799L306.887 135.863C307.344 135.443 307.728 135 308.036 134.534C308.345 134.058 308.499 133.582 308.499 133.106L308.5 132.938C308.5 132.397 308.351 131.958 308.053 131.622C307.755 131.286 307.302 131.117 306.696 131.116C306.397 131.116 306.135 131.158 305.911 131.242C305.687 131.325 305.491 131.442 305.323 131.591C305.164 131.74 305.029 131.917 304.916 132.123C304.814 132.319 304.729 132.533 304.664 132.766L303.614 132.359C303.708 132.07 303.834 131.79 303.993 131.52C304.161 131.24 304.367 130.993 304.61 130.778C304.862 130.564 305.161 130.392 305.506 130.261C305.861 130.131 306.277 130.066 306.753 130.067C307.229 130.067 307.653 130.137 308.026 130.278C308.4 130.418 308.712 130.615 308.964 130.867C309.216 131.119 309.407 131.418 309.537 131.763C309.677 132.109 309.746 132.492 309.746 132.912C309.745 133.294 309.689 133.649 309.577 133.975C309.474 134.302 309.329 134.615 309.142 134.913C308.955 135.202 308.726 135.487 308.455 135.766C308.193 136.046 307.908 136.326 307.6 136.605L304.965 138.969L310.103 138.974L310.102 140.01ZM315.235 140.183C314.068 140.182 313.215 139.738 312.674 138.851C312.143 137.963 311.878 136.722 311.88 135.126C311.882 133.53 312.149 132.289 312.682 131.403C313.224 130.517 314.078 130.074 315.245 130.075C316.412 130.076 317.261 130.521 317.792 131.408C318.332 132.295 318.602 133.537 318.6 135.133C318.598 136.729 318.326 137.97 317.784 138.856C317.251 139.742 316.401 140.184 315.235 140.183ZM315.236 139.161C315.618 139.162 315.945 139.083 316.216 138.924C316.487 138.766 316.706 138.542 316.875 138.253C317.043 137.964 317.165 137.623 317.24 137.231C317.324 136.839 317.367 136.405 317.367 135.929L317.369 134.333C317.369 133.857 317.328 133.423 317.244 133.031C317.17 132.639 317.049 132.298 316.881 132.009C316.713 131.719 316.494 131.495 316.224 131.336C315.953 131.177 315.627 131.098 315.244 131.097C314.861 131.097 314.535 131.176 314.264 131.334C313.993 131.493 313.773 131.716 313.605 132.006C313.437 132.295 313.311 132.635 313.226 133.027C313.151 133.419 313.113 133.853 313.113 134.329L313.111 135.925C313.111 136.401 313.148 136.835 313.222 137.227C313.305 137.619 313.431 137.96 313.599 138.25C313.766 138.539 313.986 138.763 314.256 138.922C314.527 139.081 314.853 139.161 315.236 139.161ZM326.891 140.027L320.479 140.021L320.481 138.817L323.676 135.88C324.133 135.46 324.517 135.018 324.825 134.551C325.134 134.075 325.288 133.6 325.289 133.124L325.289 132.956C325.289 132.414 325.14 131.975 324.842 131.639C324.544 131.303 324.091 131.134 323.485 131.134C323.186 131.133 322.925 131.175 322.7 131.259C322.476 131.343 322.28 131.459 322.112 131.608C321.953 131.758 321.818 131.935 321.706 132.14C321.603 132.336 321.518 132.55 321.453 132.784L320.403 132.377C320.497 132.087 320.623 131.807 320.782 131.537C320.95 131.257 321.156 131.01 321.399 130.796C321.651 130.581 321.95 130.409 322.295 130.279C322.65 130.148 323.066 130.083 323.542 130.084C324.018 130.084 324.442 130.155 324.815 130.295C325.189 130.436 325.501 130.632 325.753 130.884C326.005 131.136 326.196 131.435 326.326 131.781C326.466 132.126 326.535 132.509 326.535 132.929C326.534 133.312 326.478 133.666 326.366 133.993C326.263 134.319 326.118 134.632 325.931 134.93C325.744 135.219 325.515 135.504 325.244 135.784C324.982 136.063 324.697 136.343 324.389 136.623L321.754 138.986L326.892 138.991L326.891 140.027ZM329.056 140.03L329.057 138.994L331.787 138.996L331.795 131.128L331.697 131.128L329.231 133.422L328.546 132.679L331.138 130.26L332.972 130.262L332.963 138.998L335.483 139L335.482 140.036L329.056 140.03Z" fill="#CCC3D9"/>
    <path d="M154.953 244.619C134.154 362.291 75.0779 345.049 59 345.049V372H343V173.033C329.752 173.033 310.973 136.584 289.107 138.42C267.241 140.255 262.262 115.12 242.803 114.034C223.343 112.947 207.556 138.42 202.929 165.691C196.126 205.791 190.196 208.17 181.707 208.17C165.757 208.17 158.255 225.936 154.953 244.619Z" fill="url(#paint0_linear)"/>
    <path d="M59 344.837C75.0779 344.837 134.154 362.064 154.953 244.499C158.255 225.833 165.757 208.084 181.707 208.084C190.196 208.084 196.126 205.707 202.929 165.643C207.556 138.397 223.343 112.948 242.803 114.034C262.262 115.119 267.241 140.231 289.107 138.397C310.973 136.564 329.752 172.979 343 172.979" stroke="#6153E1" stroke-width="2"/>
    <circle cx="81.4209" cy="346" r="6" fill="#FBFBFB" stroke="#6153E1" stroke-width="2"/>
    <circle cx="141.421" cy="293" r="6" fill="#FBFBFB" stroke="#6153E1" stroke-width="2"/>
    <circle cx="178.421" cy="208" r="6" fill="#FBFBFB" stroke="#6153E1" stroke-width="2"/>
    <circle cx="219.421" cy="129" r="6" fill="#FBFBFB" stroke="#6153E1" stroke-width="2"/>
    <circle cx="278" cy="135.999" r="6" fill="#FBFBFB" stroke="#6153E1" stroke-width="2"/>
    <circle cx="320.421" cy="157" r="6" fill="#FBFBFB" stroke="#6153E1" stroke-width="2"/>
    <path d="M264.468 50L264.594 51.2225C266.77 72.1931 260.144 93.1376 246 110M246.12 109.871L246.114 109.878M246.12 109.871C247.228 108.477 249.039 107.781 250.859 107.878M246.12 109.871C247.228 108.477 247.408 106.749 246.766 105.288" stroke="#7B708C"/>
    <g filter="url(#filter0_d)">
        <rect x="228" y="9" width="58" height="46" rx="6" fill="white"/>
        <path d="M242.011 29.12C241.411 29.12 240.901 29.0133 240.481 28.8C240.068 28.5867 239.711 28.3067 239.411 27.96L240.301 27.1C240.541 27.38 240.808 27.5933 241.101 27.74C241.401 27.8867 241.731 27.96 242.091 27.96C242.498 27.96 242.805 27.8733 243.011 27.7C243.218 27.52 243.321 27.28 243.321 26.98C243.321 26.7467 243.255 26.5567 243.121 26.41C242.988 26.2633 242.738 26.1567 242.371 26.09L241.711 25.99C240.318 25.77 239.621 25.0933 239.621 23.96C239.621 23.6467 239.678 23.3633 239.791 23.11C239.911 22.8567 240.081 22.64 240.301 22.46C240.521 22.28 240.785 22.1433 241.091 22.05C241.405 21.95 241.758 21.9 242.151 21.9C242.678 21.9 243.138 21.9867 243.531 22.16C243.925 22.3333 244.261 22.59 244.541 22.93L243.641 23.78C243.468 23.5667 243.258 23.3933 243.011 23.26C242.765 23.1267 242.455 23.06 242.081 23.06C241.701 23.06 241.415 23.1333 241.221 23.28C241.035 23.42 240.941 23.62 240.941 23.88C240.941 24.1467 241.018 24.3433 241.171 24.47C241.325 24.5967 241.571 24.69 241.911 24.75L242.561 24.87C243.268 24.9967 243.788 25.2233 244.121 25.55C244.461 25.87 244.631 26.32 244.631 26.9C244.631 27.2333 244.571 27.5367 244.451 27.81C244.338 28.0767 244.168 28.31 243.941 28.51C243.721 28.7033 243.448 28.8533 243.121 28.96C242.801 29.0667 242.431 29.12 242.011 29.12ZM247.985 29.12C247.598 29.12 247.251 29.0567 246.945 28.93C246.645 28.7967 246.388 28.6133 246.175 28.38C245.968 28.14 245.808 27.8533 245.695 27.52C245.581 27.18 245.525 26.8 245.525 26.38C245.525 25.9667 245.578 25.5933 245.685 25.26C245.798 24.9267 245.958 24.6433 246.165 24.41C246.371 24.17 246.625 23.9867 246.925 23.86C247.225 23.7267 247.565 23.66 247.945 23.66C248.351 23.66 248.705 23.73 249.005 23.87C249.305 24.01 249.551 24.2 249.745 24.44C249.938 24.68 250.081 24.96 250.175 25.28C250.275 25.5933 250.325 25.93 250.325 26.29V26.71H246.855V26.84C246.855 27.22 246.961 27.5267 247.175 27.76C247.388 27.9867 247.705 28.1 248.125 28.1C248.445 28.1 248.705 28.0333 248.905 27.9C249.111 27.7667 249.295 27.5967 249.455 27.39L250.145 28.16C249.931 28.46 249.638 28.6967 249.265 28.87C248.898 29.0367 248.471 29.12 247.985 29.12ZM247.965 24.62C247.625 24.62 247.355 24.7333 247.155 24.96C246.955 25.1867 246.855 25.48 246.855 25.84V25.92H248.995V25.83C248.995 25.47 248.905 25.18 248.725 24.96C248.551 24.7333 248.298 24.62 247.965 24.62ZM252.731 29C252.291 29 251.968 28.89 251.761 28.67C251.554 28.45 251.451 28.14 251.451 27.74V21.6H252.731V27.98H253.421V29H252.731ZM255.602 29C255.162 29 254.839 28.89 254.632 28.67C254.425 28.45 254.322 28.14 254.322 27.74V21.6H255.602V27.98H256.292V29H255.602ZM261.875 29.12C261.275 29.12 260.765 29.0133 260.345 28.8C259.931 28.5867 259.575 28.3067 259.275 27.96L260.165 27.1C260.405 27.38 260.671 27.5933 260.965 27.74C261.265 27.8867 261.595 27.96 261.955 27.96C262.361 27.96 262.668 27.8733 262.875 27.7C263.081 27.52 263.185 27.28 263.185 26.98C263.185 26.7467 263.118 26.5567 262.985 26.41C262.851 26.2633 262.601 26.1567 262.235 26.09L261.575 25.99C260.181 25.77 259.485 25.0933 259.485 23.96C259.485 23.6467 259.541 23.3633 259.655 23.11C259.775 22.8567 259.945 22.64 260.165 22.46C260.385 22.28 260.648 22.1433 260.955 22.05C261.268 21.95 261.621 21.9 262.015 21.9C262.541 21.9 263.001 21.9867 263.395 22.16C263.788 22.3333 264.125 22.59 264.405 22.93L263.505 23.78C263.331 23.5667 263.121 23.3933 262.875 23.26C262.628 23.1267 262.318 23.06 261.945 23.06C261.565 23.06 261.278 23.1333 261.085 23.28C260.898 23.42 260.805 23.62 260.805 23.88C260.805 24.1467 260.881 24.3433 261.035 24.47C261.188 24.5967 261.435 24.69 261.775 24.75L262.425 24.87C263.131 24.9967 263.651 25.2233 263.985 25.55C264.325 25.87 264.495 26.32 264.495 26.9C264.495 27.2333 264.435 27.5367 264.315 27.81C264.201 28.0767 264.031 28.31 263.805 28.51C263.585 28.7033 263.311 28.8533 262.985 28.96C262.665 29.0667 262.295 29.12 261.875 29.12ZM265.528 29V27.94H266.448V23.08H265.528V22.02H268.698V23.08H267.768V27.94H268.698V29H265.528ZM272.738 23.19V29H271.418V23.19H269.438V22.02H274.718V23.19H272.738ZM247.286 34.6H248.566V37.65H248.616C248.723 37.37 248.889 37.1367 249.116 36.95C249.349 36.7567 249.669 36.66 250.076 36.66C250.616 36.66 251.029 36.8367 251.316 37.19C251.603 37.5433 251.746 38.0467 251.746 38.7V42H250.466V38.83C250.466 38.4567 250.399 38.1767 250.266 37.99C250.133 37.8033 249.913 37.71 249.606 37.71C249.473 37.71 249.343 37.73 249.216 37.77C249.096 37.8033 248.986 37.8567 248.886 37.93C248.793 37.9967 248.716 38.0833 248.656 38.19C248.596 38.29 248.566 38.41 248.566 38.55V42H247.286V34.6ZM255.275 42.12C254.888 42.12 254.541 42.0567 254.235 41.93C253.935 41.7967 253.678 41.6133 253.465 41.38C253.258 41.14 253.098 40.8533 252.985 40.52C252.871 40.18 252.815 39.8 252.815 39.38C252.815 38.9667 252.868 38.5933 252.975 38.26C253.088 37.9267 253.248 37.6433 253.455 37.41C253.661 37.17 253.915 36.9867 254.215 36.86C254.515 36.7267 254.855 36.66 255.235 36.66C255.641 36.66 255.995 36.73 256.295 36.87C256.595 37.01 256.841 37.2 257.035 37.44C257.228 37.68 257.371 37.96 257.465 38.28C257.565 38.5933 257.615 38.93 257.615 39.29V39.71H254.145V39.84C254.145 40.22 254.251 40.5267 254.465 40.76C254.678 40.9867 254.995 41.1 255.415 41.1C255.735 41.1 255.995 41.0333 256.195 40.9C256.401 40.7667 256.585 40.5967 256.745 40.39L257.435 41.16C257.221 41.46 256.928 41.6967 256.555 41.87C256.188 42.0367 255.761 42.12 255.275 42.12ZM255.255 37.62C254.915 37.62 254.645 37.7333 254.445 37.96C254.245 38.1867 254.145 38.48 254.145 38.84V38.92H256.285V38.83C256.285 38.47 256.195 38.18 256.015 37.96C255.841 37.7333 255.588 37.62 255.255 37.62ZM258.741 42V36.78H260.021V37.86H260.071C260.104 37.72 260.154 37.5867 260.221 37.46C260.294 37.3267 260.388 37.21 260.501 37.11C260.614 37.01 260.748 36.93 260.901 36.87C261.061 36.81 261.244 36.78 261.451 36.78H261.731V37.99H261.331C260.898 37.99 260.571 38.0533 260.351 38.18C260.131 38.3067 260.021 38.5133 260.021 38.8V42H258.741ZM264.728 42.12C264.341 42.12 263.995 42.0567 263.688 41.93C263.388 41.7967 263.131 41.6133 262.918 41.38C262.711 41.14 262.551 40.8533 262.438 40.52C262.325 40.18 262.268 39.8 262.268 39.38C262.268 38.9667 262.321 38.5933 262.428 38.26C262.541 37.9267 262.701 37.6433 262.908 37.41C263.115 37.17 263.368 36.9867 263.668 36.86C263.968 36.7267 264.308 36.66 264.688 36.66C265.095 36.66 265.448 36.73 265.748 36.87C266.048 37.01 266.295 37.2 266.488 37.44C266.681 37.68 266.825 37.96 266.918 38.28C267.018 38.5933 267.068 38.93 267.068 39.29V39.71H263.598V39.84C263.598 40.22 263.705 40.5267 263.918 40.76C264.131 40.9867 264.448 41.1 264.868 41.1C265.188 41.1 265.448 41.0333 265.648 40.9C265.855 40.7667 266.038 40.5967 266.198 40.39L266.888 41.16C266.675 41.46 266.381 41.6967 266.008 41.87C265.641 42.0367 265.215 42.12 264.728 42.12ZM264.708 37.62C264.368 37.62 264.098 37.7333 263.898 37.96C263.698 38.1867 263.598 38.48 263.598 38.84V38.92H265.738V38.83C265.738 38.47 265.648 38.18 265.468 37.96C265.295 37.7333 265.041 37.62 264.708 37.62Z" fill="#9CA3C4"/>
    </g>
    <path d="M62 273V273C62.4964 273.496 63.0596 273.922 63.6476 274.304C81.0216 285.615 81.6523 318.301 81.6523 336.006M81.651 335.861L81.6516 335.868M81.651 335.861C81.5268 334.382 82.3887 332.846 83.5 332M81.651 335.861C81.5268 334.382 80.872 332.978 79.6936 332.331" stroke="#7B708C"/>
    <g filter="url(#filter1_d)">
        <rect x="45" y="250" width="58" height="46" rx="6" fill="white"/>
        <path d="M56.7145 263.02H59.9445C60.2312 263.02 60.4879 263.063 60.7145 263.15C60.9479 263.237 61.1445 263.357 61.3045 263.51C61.4645 263.663 61.5845 263.853 61.6645 264.08C61.7512 264.3 61.7945 264.543 61.7945 264.81C61.7945 265.077 61.7579 265.303 61.6845 265.49C61.6179 265.67 61.5245 265.82 61.4045 265.94C61.2912 266.06 61.1579 266.15 61.0045 266.21C60.8579 266.27 60.7045 266.303 60.5445 266.31V266.37C60.6979 266.37 60.8612 266.4 61.0345 266.46C61.2145 266.52 61.3779 266.617 61.5245 266.75C61.6779 266.877 61.8045 267.043 61.9045 267.25C62.0045 267.45 62.0545 267.7 62.0545 268C62.0545 268.28 62.0079 268.543 61.9145 268.79C61.8279 269.03 61.7045 269.24 61.5445 269.42C61.3845 269.6 61.1945 269.743 60.9745 269.85C60.7545 269.95 60.5145 270 60.2545 270H56.7145V263.02ZM58.0345 268.88H59.8745C60.1279 268.88 60.3245 268.817 60.4645 268.69C60.6045 268.557 60.6745 268.367 60.6745 268.12V267.78C60.6745 267.533 60.6045 267.343 60.4645 267.21C60.3245 267.077 60.1279 267.01 59.8745 267.01H58.0345V268.88ZM58.0345 265.93H59.6645C59.9045 265.93 60.0912 265.867 60.2245 265.74C60.3579 265.607 60.4245 265.423 60.4245 265.19V264.88C60.4245 264.647 60.3579 264.467 60.2245 264.34C60.0912 264.207 59.9045 264.14 59.6645 264.14H58.0345V265.93ZM66.3854 269.13H66.3354C66.2887 269.263 66.2254 269.39 66.1454 269.51C66.0721 269.623 65.9754 269.727 65.8554 269.82C65.7421 269.913 65.6021 269.987 65.4354 270.04C65.2754 270.093 65.0887 270.12 64.8754 270.12C64.3354 270.12 63.9221 269.943 63.6354 269.59C63.3487 269.237 63.2054 268.733 63.2054 268.08V264.78H64.4854V267.95C64.4854 268.31 64.5554 268.587 64.6954 268.78C64.8354 268.967 65.0587 269.06 65.3654 269.06C65.4921 269.06 65.6154 269.043 65.7354 269.01C65.8621 268.977 65.9721 268.927 66.0654 268.86C66.1587 268.787 66.2354 268.7 66.2954 268.6C66.3554 268.493 66.3854 268.37 66.3854 268.23V264.78H67.6654V270H66.3854V269.13ZM72.3443 264.78H73.5443L71.4443 270.93C71.3776 271.117 71.301 271.277 71.2143 271.41C71.1343 271.55 71.0376 271.663 70.9243 271.75C70.811 271.837 70.6743 271.9 70.5143 271.94C70.3543 271.98 70.1676 272 69.9543 272H69.1843V270.98H70.1243L70.3643 270.25L68.4943 264.78H69.7643L70.6743 267.54L71.0143 268.86H71.0743L71.4343 267.54L72.3443 264.78ZM79.0017 270.12C78.4017 270.12 77.8917 270.013 77.4717 269.8C77.0584 269.587 76.7017 269.307 76.4017 268.96L77.2917 268.1C77.5317 268.38 77.7984 268.593 78.0917 268.74C78.3917 268.887 78.7217 268.96 79.0817 268.96C79.4884 268.96 79.7951 268.873 80.0017 268.7C80.2084 268.52 80.3117 268.28 80.3117 267.98C80.3117 267.747 80.2451 267.557 80.1117 267.41C79.9784 267.263 79.7284 267.157 79.3617 267.09L78.7017 266.99C77.3084 266.77 76.6117 266.093 76.6117 264.96C76.6117 264.647 76.6684 264.363 76.7817 264.11C76.9017 263.857 77.0717 263.64 77.2917 263.46C77.5117 263.28 77.7751 263.143 78.0817 263.05C78.3951 262.95 78.7484 262.9 79.1417 262.9C79.6684 262.9 80.1284 262.987 80.5217 263.16C80.9151 263.333 81.2517 263.59 81.5317 263.93L80.6317 264.78C80.4584 264.567 80.2484 264.393 80.0017 264.26C79.7551 264.127 79.4451 264.06 79.0717 264.06C78.6917 264.06 78.4051 264.133 78.2117 264.28C78.0251 264.42 77.9317 264.62 77.9317 264.88C77.9317 265.147 78.0084 265.343 78.1617 265.47C78.3151 265.597 78.5617 265.69 78.9017 265.75L79.5517 265.87C80.2584 265.997 80.7784 266.223 81.1117 266.55C81.4517 266.87 81.6217 267.32 81.6217 267.9C81.6217 268.233 81.5617 268.537 81.4417 268.81C81.3284 269.077 81.1584 269.31 80.9317 269.51C80.7117 269.703 80.4384 269.853 80.1117 269.96C79.7917 270.067 79.4217 270.12 79.0017 270.12ZM82.655 270V268.94H83.575V264.08H82.655V263.02H85.825V264.08H84.895V268.94H85.825V270H82.655ZM89.8647 264.19V270H88.5447V264.19H86.5647V263.02H91.8447V264.19H89.8647ZM64.2859 275.6H65.5659V278.65H65.6159C65.7226 278.37 65.8892 278.137 66.1159 277.95C66.3492 277.757 66.6692 277.66 67.0759 277.66C67.6159 277.66 68.0292 277.837 68.3159 278.19C68.6026 278.543 68.7459 279.047 68.7459 279.7V283H67.4659V279.83C67.4659 279.457 67.3992 279.177 67.2659 278.99C67.1326 278.803 66.9126 278.71 66.6059 278.71C66.4726 278.71 66.3426 278.73 66.2159 278.77C66.0959 278.803 65.9859 278.857 65.8859 278.93C65.7926 278.997 65.7159 279.083 65.6559 279.19C65.5959 279.29 65.5659 279.41 65.5659 279.55V283H64.2859V275.6ZM72.2748 283.12C71.8881 283.12 71.5415 283.057 71.2348 282.93C70.9348 282.797 70.6781 282.613 70.4648 282.38C70.2581 282.14 70.0981 281.853 69.9848 281.52C69.8715 281.18 69.8148 280.8 69.8148 280.38C69.8148 279.967 69.8681 279.593 69.9748 279.26C70.0881 278.927 70.2481 278.643 70.4548 278.41C70.6615 278.17 70.9148 277.987 71.2148 277.86C71.5148 277.727 71.8548 277.66 72.2348 277.66C72.6415 277.66 72.9948 277.73 73.2948 277.87C73.5948 278.01 73.8415 278.2 74.0348 278.44C74.2281 278.68 74.3715 278.96 74.4648 279.28C74.5648 279.593 74.6148 279.93 74.6148 280.29V280.71H71.1448V280.84C71.1448 281.22 71.2515 281.527 71.4648 281.76C71.6781 281.987 71.9948 282.1 72.4148 282.1C72.7348 282.1 72.9948 282.033 73.1948 281.9C73.4015 281.767 73.5848 281.597 73.7448 281.39L74.4348 282.16C74.2215 282.46 73.9281 282.697 73.5548 282.87C73.1881 283.037 72.7615 283.12 72.2748 283.12ZM72.2548 278.62C71.9148 278.62 71.6448 278.733 71.4448 278.96C71.2448 279.187 71.1448 279.48 71.1448 279.84V279.92H73.2848V279.83C73.2848 279.47 73.1948 279.18 73.0148 278.96C72.8415 278.733 72.5881 278.62 72.2548 278.62ZM75.741 283V277.78H77.021V278.86H77.071C77.1043 278.72 77.1543 278.587 77.221 278.46C77.2943 278.327 77.3876 278.21 77.501 278.11C77.6143 278.01 77.7476 277.93 77.901 277.87C78.061 277.81 78.2443 277.78 78.451 277.78H78.731V278.99H78.331C77.8976 278.99 77.571 279.053 77.351 279.18C77.131 279.307 77.021 279.513 77.021 279.8V283H75.741ZM81.7279 283.12C81.3413 283.12 80.9946 283.057 80.6879 282.93C80.3879 282.797 80.1313 282.613 79.9179 282.38C79.7113 282.14 79.5513 281.853 79.4379 281.52C79.3246 281.18 79.2679 280.8 79.2679 280.38C79.2679 279.967 79.3213 279.593 79.4279 279.26C79.5413 278.927 79.7013 278.643 79.9079 278.41C80.1146 278.17 80.3679 277.987 80.6679 277.86C80.9679 277.727 81.3079 277.66 81.6879 277.66C82.0946 277.66 82.4479 277.73 82.7479 277.87C83.0479 278.01 83.2946 278.2 83.4879 278.44C83.6813 278.68 83.8246 278.96 83.9179 279.28C84.0179 279.593 84.0679 279.93 84.0679 280.29V280.71H80.5979V280.84C80.5979 281.22 80.7046 281.527 80.9179 281.76C81.1313 281.987 81.4479 282.1 81.8679 282.1C82.1879 282.1 82.4479 282.033 82.6479 281.9C82.8546 281.767 83.0379 281.597 83.1979 281.39L83.8879 282.16C83.6746 282.46 83.3813 282.697 83.0079 282.87C82.6413 283.037 82.2146 283.12 81.7279 283.12ZM81.7079 278.62C81.3679 278.62 81.0979 278.733 80.8979 278.96C80.6979 279.187 80.5979 279.48 80.5979 279.84V279.92H82.7379V279.83C82.7379 279.47 82.6479 279.18 82.4679 278.96C82.2946 278.733 82.0413 278.62 81.7079 278.62Z" fill="#9CA3C4"/>
    </g>
    <defs>
        <filter id="filter0_d" x="214" y="0" width="86" height="74" filterUnits="userSpaceOnUse" color-interpolation-filters="sRGB">
            <feFlood flood-opacity="0" result="BackgroundImageFix"/>
            <feColorMatrix in="SourceAlpha" type="matrix" values="0 0 0 0 0 0 0 0 0 0 0 0 0 0 0 0 0 0 127 0" result="hardAlpha"/>
            <feOffset dy="5"/>
            <feGaussianBlur stdDeviation="7"/>
            <feColorMatrix type="matrix" values="0 0 0 0 0.250044 0 0 0 0 0.213956 0 0 0 0 0.58 0 0 0 0.08 0"/>
            <feBlend mode="normal" in2="BackgroundImageFix" result="effect1_dropShadow"/>
            <feBlend mode="normal" in="SourceGraphic" in2="effect1_dropShadow" result="shape"/>
        </filter>
        <filter id="filter1_d" x="31" y="241" width="86" height="74" filterUnits="userSpaceOnUse" color-interpolation-filters="sRGB">
            <feFlood flood-opacity="0" result="BackgroundImageFix"/>
            <feColorMatrix in="SourceAlpha" type="matrix" values="0 0 0 0 0 0 0 0 0 0 0 0 0 0 0 0 0 0 127 0" result="hardAlpha"/>
            <feOffset dy="5"/>
            <feGaussianBlur stdDeviation="7"/>
            <feColorMatrix type="matrix" values="0 0 0 0 0.250044 0 0 0 0 0.213956 0 0 0 0 0.58 0 0 0 0.08 0"/>
            <feBlend mode="normal" in2="BackgroundImageFix" result="effect1_dropShadow"/>
            <feBlend mode="normal" in="SourceGraphic" in2="effect1_dropShadow" result="shape"/>
        </filter>
        <linearGradient id="paint0_linear" x1="201" y1="114" x2="201.604" y2="391.11" gradientUnits="userSpaceOnUse">
            <stop stop-color="#6153E1" stop-opacity="0.21"/>
            <stop offset="1" stop-color="#6153E1" stop-opacity="0"/>
        </linearGradient>
    </defs>
</svg>
