<svg width="56" height="479" viewBox="0 0 56 479" fill="none" xmlns="http://www.w3.org/2000/svg">
    <path d="M6.99998 455.5L7.99998 455.5L6.99998 455.5ZM28.2929 475.792L27.5858 476.5L29 477.914L29.7071 477.207L28.2929 475.792ZM34 471.5L34.7071 472.207C35.0976 471.816 35.0976 471.183 34.7071 470.792L34 471.5ZM29.7071 465.792L29 465.085L27.5858 466.5L28.2929 467.207L29.7071 465.792ZM7.99998 455.5L7.99997 8L5.99997 8L5.99998 455.5L7.99998 455.5ZM33 470.5L23 470.5L23 472.5L33 472.5L33 470.5ZM5.99998 455.5C5.99998 464.888 13.6111 472.5 23 472.5L23 470.5C14.7157 470.5 7.99998 463.784 7.99998 455.5L5.99998 455.5ZM29.7071 477.207L34.7071 472.207L33.2929 470.792L28.2929 475.792L29.7071 477.207ZM34.7071 470.792L29.7071 465.792L28.2929 467.207L33.2929 472.207L34.7071 470.792Z" fill="#9CA3C4"/>
    <circle cx="7" cy="7.49951" r="6" transform="rotate(90 7 7.49951)" fill="#190F38" stroke="#9CA3C4" stroke-width="2"/>
    <circle cx="7" cy="239.5" r="6" transform="rotate(90 7 239.5)" fill="#190F38" stroke="#9CA3C4" stroke-width="2"/>
    <circle cx="49" cy="471.5" r="6" transform="rotate(90 49 471.5)" fill="#190F38" stroke="#9CA3C4" stroke-width="2"/>
</svg>
