<svg width="116" height="808" viewBox="0 0 116 808" fill="none" xmlns="http://www.w3.org/2000/svg">
    <g filter="url(#filter0_d)">
        <rect x="100" y="12.0005" width="696" height="44" rx="22" transform="rotate(90 100 12.0005)" fill="#23174F"/>
    </g>
    <path d="M78 12C90.1503 12 100 21.8497 100 34L100 244L56 244L56 34C56 21.8497 65.8497 12 78 12Z" fill="#6153E1"/>
    <path d="M68.9567 117.02V121.31C68.9567 121.857 69.0601 122.267 69.2667 122.54C69.4801 122.813 69.8367 122.95 70.3367 122.95C70.8367 122.95 71.1901 122.813 71.3967 122.54C71.6101 122.267 71.7167 121.857 71.7167 121.31V117.02H73.0167V121.14C73.0167 121.653 72.9667 122.097 72.8667 122.47C72.7734 122.843 72.6201 123.153 72.4067 123.4C72.1934 123.647 71.9134 123.83 71.5667 123.95C71.2267 124.063 70.8134 124.12 70.3267 124.12C69.8334 124.12 69.4167 124.063 69.0767 123.95C68.7434 123.83 68.4701 123.647 68.2567 123.4C68.0434 123.153 67.8901 122.843 67.7967 122.47C67.7034 122.097 67.6567 121.653 67.6567 121.14V117.02H68.9567ZM74.531 124V118.78H75.811V119.65H75.861C75.9677 119.37 76.1343 119.137 76.361 118.95C76.5943 118.757 76.9143 118.66 77.321 118.66C77.861 118.66 78.2743 118.837 78.561 119.19C78.8477 119.543 78.991 120.047 78.991 120.7V124H77.711V120.83C77.711 120.457 77.6443 120.177 77.511 119.99C77.3777 119.803 77.1577 119.71 76.851 119.71C76.7177 119.71 76.5877 119.73 76.461 119.77C76.341 119.803 76.231 119.857 76.131 119.93C76.0377 119.997 75.961 120.083 75.901 120.19C75.841 120.29 75.811 120.41 75.811 120.55V124H74.531ZM82.0399 124C81.5999 124 81.2633 123.887 81.0299 123.66C80.8033 123.427 80.6899 123.097 80.6899 122.67V119.8H79.9199V118.78H80.3199C80.5133 118.78 80.6433 118.737 80.7099 118.65C80.7833 118.557 80.8199 118.42 80.8199 118.24V117.35H81.9699V118.78H83.0399V119.8H81.9699V122.98H82.9599V124H82.0399ZM84.7902 118.02C84.5235 118.02 84.3302 117.96 84.2102 117.84C84.0968 117.72 84.0402 117.567 84.0402 117.38V117.18C84.0402 116.993 84.0968 116.84 84.2102 116.72C84.3302 116.6 84.5235 116.54 84.7902 116.54C85.0502 116.54 85.2402 116.6 85.3602 116.72C85.4802 116.84 85.5402 116.993 85.5402 117.18V117.38C85.5402 117.567 85.4802 117.72 85.3602 117.84C85.2402 117.96 85.0502 118.02 84.7902 118.02ZM84.1502 118.78H85.4302V124H84.1502V118.78ZM88.1938 124C87.7538 124 87.4305 123.89 87.2238 123.67C87.0172 123.45 86.9138 123.14 86.9138 122.74V116.6H88.1938V122.98H88.8838V124H88.1938ZM69.5853 137L69.0253 135.22H66.5453L65.9953 137H64.6553L66.9953 130.02H68.6353L70.9553 137H69.5853ZM67.8053 131.22H67.7553L66.8653 134.09H68.7053L67.8053 131.22ZM75.0241 136.13H74.9741C74.9274 136.263 74.8641 136.39 74.7841 136.51C74.7107 136.623 74.6141 136.727 74.4941 136.82C74.3807 136.913 74.2407 136.987 74.0741 137.04C73.9141 137.093 73.7274 137.12 73.5141 137.12C72.9741 137.12 72.5607 136.943 72.2741 136.59C71.9874 136.237 71.8441 135.733 71.8441 135.08V131.78H73.1241V134.95C73.1241 135.31 73.1941 135.587 73.3341 135.78C73.4741 135.967 73.6974 136.06 74.0041 136.06C74.1307 136.06 74.2541 136.043 74.3741 136.01C74.5007 135.977 74.6107 135.927 74.7041 135.86C74.7974 135.787 74.8741 135.7 74.9341 135.6C74.9941 135.493 75.0241 135.37 75.0241 135.23V131.78H76.3041V137H75.0241V136.13ZM82.493 137.44C82.493 137.713 82.443 137.953 82.343 138.16C82.2496 138.373 82.093 138.55 81.873 138.69C81.653 138.83 81.3696 138.937 81.023 139.01C80.6763 139.083 80.253 139.12 79.753 139.12C79.313 139.12 78.9396 139.09 78.633 139.03C78.3263 138.977 78.073 138.897 77.873 138.79C77.6796 138.69 77.5396 138.563 77.453 138.41C77.3663 138.257 77.323 138.083 77.323 137.89C77.323 137.597 77.403 137.367 77.563 137.2C77.7296 137.04 77.9596 136.937 78.253 136.89V136.78C78.0396 136.727 77.873 136.623 77.753 136.47C77.6396 136.31 77.583 136.123 77.583 135.91C77.583 135.777 77.6096 135.66 77.663 135.56C77.7163 135.453 77.7863 135.363 77.873 135.29C77.9663 135.217 78.0696 135.157 78.183 135.11C78.2963 135.057 78.4163 135.017 78.543 134.99V134.95C78.223 134.803 77.983 134.6 77.823 134.34C77.6696 134.08 77.593 133.777 77.593 133.43C77.593 132.897 77.7763 132.47 78.143 132.15C78.5096 131.823 79.0463 131.66 79.753 131.66C79.913 131.66 80.0696 131.67 80.223 131.69C80.383 131.71 80.5296 131.743 80.663 131.79V131.62C80.663 131.113 80.9096 130.86 81.403 130.86H82.213V131.84H81.103V131.98C81.3763 132.133 81.5796 132.333 81.713 132.58C81.8463 132.827 81.913 133.11 81.913 133.43C81.913 133.957 81.7296 134.38 81.363 134.7C81.003 135.02 80.4663 135.18 79.753 135.18C79.4463 135.18 79.1796 135.15 78.953 135.09C78.853 135.137 78.7663 135.2 78.693 135.28C78.6196 135.353 78.583 135.447 78.583 135.56C78.583 135.82 78.8096 135.95 79.263 135.95H80.663C81.303 135.95 81.7663 136.083 82.053 136.35C82.3463 136.61 82.493 136.973 82.493 137.44ZM81.293 137.59C81.293 137.423 81.2263 137.293 81.093 137.2C80.9596 137.107 80.7296 137.06 80.403 137.06H78.623C78.443 137.193 78.353 137.373 78.353 137.6C78.353 137.8 78.4363 137.957 78.603 138.07C78.7696 138.183 79.053 138.24 79.453 138.24H80.093C80.513 138.24 80.8163 138.187 81.003 138.08C81.1963 137.973 81.293 137.81 81.293 137.59ZM79.753 134.31C80.3796 134.31 80.693 134.043 80.693 133.51V133.34C80.693 132.807 80.3796 132.54 79.753 132.54C79.1263 132.54 78.813 132.807 78.813 133.34V133.51C78.813 134.043 79.1263 134.31 79.753 134.31ZM84.0603 137.11C83.787 137.11 83.5836 137.043 83.4503 136.91C83.3236 136.77 83.2603 136.593 83.2603 136.38V136.2C83.2603 135.987 83.3236 135.81 83.4503 135.67C83.5836 135.53 83.787 135.46 84.0603 135.46C84.3403 135.46 84.5436 135.53 84.6703 135.67C84.797 135.81 84.8603 135.987 84.8603 136.2V136.38C84.8603 136.593 84.797 136.77 84.6703 136.91C84.5436 137.043 84.3403 137.11 84.0603 137.11ZM86.4686 137V135.93H88.3886V130.97H88.2986L86.7786 132.77L85.9586 132.08L87.6886 130.02H89.6786V135.93H91.2786V137H86.4686Z" fill="white"/>
    <path d="M100 244L100 476L56 476L56 244L100 244Z" fill="#FFCA36"/>
    <path d="M68.9567 349.02V353.31C68.9567 353.857 69.0601 354.267 69.2667 354.54C69.4801 354.813 69.8367 354.95 70.3367 354.95C70.8367 354.95 71.1901 354.813 71.3967 354.54C71.6101 354.267 71.7167 353.857 71.7167 353.31V349.02H73.0167V353.14C73.0167 353.653 72.9667 354.097 72.8667 354.47C72.7734 354.843 72.6201 355.153 72.4067 355.4C72.1934 355.647 71.9134 355.83 71.5667 355.95C71.2267 356.063 70.8134 356.12 70.3267 356.12C69.8334 356.12 69.4167 356.063 69.0767 355.95C68.7434 355.83 68.4701 355.647 68.2567 355.4C68.0434 355.153 67.8901 354.843 67.7967 354.47C67.7034 354.097 67.6567 353.653 67.6567 353.14V349.02H68.9567ZM74.531 356V350.78H75.811V351.65H75.861C75.9677 351.37 76.1343 351.137 76.361 350.95C76.5943 350.757 76.9143 350.66 77.321 350.66C77.861 350.66 78.2743 350.837 78.561 351.19C78.8477 351.543 78.991 352.047 78.991 352.7V356H77.711V352.83C77.711 352.457 77.6443 352.177 77.511 351.99C77.3777 351.803 77.1577 351.71 76.851 351.71C76.7177 351.71 76.5877 351.73 76.461 351.77C76.341 351.803 76.231 351.857 76.131 351.93C76.0377 351.997 75.961 352.083 75.901 352.19C75.841 352.29 75.811 352.41 75.811 352.55V356H74.531ZM82.0399 356C81.5999 356 81.2633 355.887 81.0299 355.66C80.8033 355.427 80.6899 355.097 80.6899 354.67V351.8H79.9199V350.78H80.3199C80.5133 350.78 80.6433 350.737 80.7099 350.65C80.7833 350.557 80.8199 350.42 80.8199 350.24V349.35H81.9699V350.78H83.0399V351.8H81.9699V354.98H82.9599V356H82.0399ZM84.7902 350.02C84.5235 350.02 84.3302 349.96 84.2102 349.84C84.0968 349.72 84.0402 349.567 84.0402 349.38V349.18C84.0402 348.993 84.0968 348.84 84.2102 348.72C84.3302 348.6 84.5235 348.54 84.7902 348.54C85.0502 348.54 85.2402 348.6 85.3602 348.72C85.4802 348.84 85.5402 348.993 85.5402 349.18V349.38C85.5402 349.567 85.4802 349.72 85.3602 349.84C85.2402 349.96 85.0502 350.02 84.7902 350.02ZM84.1502 350.78H85.4302V356H84.1502V350.78ZM88.1938 356C87.7538 356 87.4305 355.89 87.2238 355.67C87.0172 355.45 86.9138 355.14 86.9138 354.74V348.6H88.1938V354.98H88.8838V356H88.1938ZM66.5873 369L66.0273 367.22H63.5473L62.9973 369H61.6573L63.9973 362.02H65.6373L67.9573 369H66.5873ZM64.8073 363.22H64.7573L63.8673 366.09H65.7073L64.8073 363.22ZM72.026 368.13H71.976C71.9293 368.263 71.866 368.39 71.786 368.51C71.7127 368.623 71.616 368.727 71.496 368.82C71.3827 368.913 71.2427 368.987 71.076 369.04C70.916 369.093 70.7293 369.12 70.516 369.12C69.976 369.12 69.5627 368.943 69.276 368.59C68.9893 368.237 68.846 367.733 68.846 367.08V363.78H70.126V366.95C70.126 367.31 70.196 367.587 70.336 367.78C70.476 367.967 70.6993 368.06 71.006 368.06C71.1327 368.06 71.256 368.043 71.376 368.01C71.5027 367.977 71.6127 367.927 71.706 367.86C71.7993 367.787 71.876 367.7 71.936 367.6C71.996 367.493 72.026 367.37 72.026 367.23V363.78H73.306V369H72.026V368.13ZM79.4949 369.44C79.4949 369.713 79.4449 369.953 79.3449 370.16C79.2516 370.373 79.0949 370.55 78.8749 370.69C78.6549 370.83 78.3716 370.937 78.0249 371.01C77.6783 371.083 77.2549 371.12 76.7549 371.12C76.3149 371.12 75.9416 371.09 75.6349 371.03C75.3283 370.977 75.0749 370.897 74.8749 370.79C74.6816 370.69 74.5416 370.563 74.4549 370.41C74.3683 370.257 74.3249 370.083 74.3249 369.89C74.3249 369.597 74.4049 369.367 74.5649 369.2C74.7316 369.04 74.9616 368.937 75.2549 368.89V368.78C75.0416 368.727 74.8749 368.623 74.7549 368.47C74.6416 368.31 74.5849 368.123 74.5849 367.91C74.5849 367.777 74.6116 367.66 74.6649 367.56C74.7183 367.453 74.7883 367.363 74.8749 367.29C74.9683 367.217 75.0716 367.157 75.1849 367.11C75.2983 367.057 75.4183 367.017 75.5449 366.99V366.95C75.2249 366.803 74.9849 366.6 74.8249 366.34C74.6716 366.08 74.5949 365.777 74.5949 365.43C74.5949 364.897 74.7783 364.47 75.1449 364.15C75.5116 363.823 76.0483 363.66 76.7549 363.66C76.9149 363.66 77.0716 363.67 77.2249 363.69C77.3849 363.71 77.5316 363.743 77.6649 363.79V363.62C77.6649 363.113 77.9116 362.86 78.4049 362.86H79.2149V363.84H78.1049V363.98C78.3783 364.133 78.5816 364.333 78.7149 364.58C78.8483 364.827 78.9149 365.11 78.9149 365.43C78.9149 365.957 78.7316 366.38 78.3649 366.7C78.0049 367.02 77.4683 367.18 76.7549 367.18C76.4483 367.18 76.1816 367.15 75.9549 367.09C75.8549 367.137 75.7683 367.2 75.6949 367.28C75.6216 367.353 75.5849 367.447 75.5849 367.56C75.5849 367.82 75.8116 367.95 76.2649 367.95H77.6649C78.3049 367.95 78.7683 368.083 79.0549 368.35C79.3483 368.61 79.4949 368.973 79.4949 369.44ZM78.2949 369.59C78.2949 369.423 78.2283 369.293 78.0949 369.2C77.9616 369.107 77.7316 369.06 77.4049 369.06H75.6249C75.4449 369.193 75.3549 369.373 75.3549 369.6C75.3549 369.8 75.4383 369.957 75.6049 370.07C75.7716 370.183 76.0549 370.24 76.4549 370.24H77.0949C77.5149 370.24 77.8183 370.187 78.0049 370.08C78.1983 369.973 78.2949 369.81 78.2949 369.59ZM76.7549 366.31C77.3816 366.31 77.6949 366.043 77.6949 365.51V365.34C77.6949 364.807 77.3816 364.54 76.7549 364.54C76.1283 364.54 75.8149 364.807 75.8149 365.34V365.51C75.8149 366.043 76.1283 366.31 76.7549 366.31ZM81.0623 369.11C80.7889 369.11 80.5856 369.043 80.4523 368.91C80.3256 368.77 80.2623 368.593 80.2623 368.38V368.2C80.2623 367.987 80.3256 367.81 80.4523 367.67C80.5856 367.53 80.7889 367.46 81.0623 367.46C81.3423 367.46 81.5456 367.53 81.6723 367.67C81.7989 367.81 81.8623 367.987 81.8623 368.2V368.38C81.8623 368.593 81.7989 368.77 81.6723 368.91C81.5456 369.043 81.3423 369.11 81.0623 369.11ZM83.4705 369V367.93H85.3905V362.97H85.3005L83.7805 364.77L82.9605 364.08L84.6905 362.02H86.6805V367.93H88.2805V369H83.4705ZM93.7066 363.16H90.5666L90.4066 365.5H90.4766C90.55 365.353 90.63 365.217 90.7166 365.09C90.8033 364.963 90.9033 364.857 91.0166 364.77C91.13 364.683 91.26 364.617 91.4066 364.57C91.56 364.517 91.7433 364.49 91.9566 364.49C92.2566 364.49 92.5366 364.54 92.7966 364.64C93.0566 364.74 93.28 364.887 93.4666 365.08C93.66 365.267 93.81 365.497 93.9166 365.77C94.03 366.043 94.0866 366.353 94.0866 366.7C94.0866 367.053 94.03 367.377 93.9166 367.67C93.8033 367.963 93.6366 368.22 93.4166 368.44C93.1966 368.653 92.9266 368.82 92.6066 368.94C92.2866 369.06 91.92 369.12 91.5066 369.12C91.1866 369.12 90.9 369.083 90.6466 369.01C90.3933 368.943 90.17 368.85 89.9766 368.73C89.7833 368.61 89.6166 368.473 89.4766 368.32C89.3366 368.16 89.2133 367.993 89.1066 367.82L90.0666 367.08C90.1466 367.213 90.23 367.34 90.3166 367.46C90.4033 367.573 90.5033 367.673 90.6166 367.76C90.7366 367.847 90.8666 367.917 91.0066 367.97C91.1533 368.017 91.3233 368.04 91.5166 368.04C91.91 368.04 92.2066 367.93 92.4066 367.71C92.6133 367.49 92.7166 367.19 92.7166 366.81V366.73C92.7166 366.37 92.6133 366.087 92.4066 365.88C92.2 365.673 91.9133 365.57 91.5466 365.57C91.26 365.57 91.0266 365.627 90.8466 365.74C90.6666 365.847 90.5233 365.963 90.4166 366.09L89.3366 365.94L89.5966 362.02H93.7066V363.16Z" fill="black"/>
    <path d="M100 476L100 686C100 698.15 90.1503 708 78 708C65.8497 708 56 698.15 56 686L56 476L100 476Z" fill="#E25656"/>
    <path d="M66.5873 595L66.0273 593.22H63.5473L62.9973 595H61.6573L63.9973 588.02H65.6373L67.9573 595H66.5873ZM64.8073 589.22H64.7573L63.8673 592.09H65.7073L64.8073 589.22ZM72.026 594.13H71.976C71.9293 594.263 71.866 594.39 71.786 594.51C71.7127 594.623 71.616 594.727 71.496 594.82C71.3827 594.913 71.2427 594.987 71.076 595.04C70.916 595.093 70.7293 595.12 70.516 595.12C69.976 595.12 69.5627 594.943 69.276 594.59C68.9893 594.237 68.846 593.733 68.846 593.08V589.78H70.126V592.95C70.126 593.31 70.196 593.587 70.336 593.78C70.476 593.967 70.6993 594.06 71.006 594.06C71.1327 594.06 71.256 594.043 71.376 594.01C71.5027 593.977 71.6127 593.927 71.706 593.86C71.7993 593.787 71.876 593.7 71.936 593.6C71.996 593.493 72.026 593.37 72.026 593.23V589.78H73.306V595H72.026V594.13ZM79.4949 595.44C79.4949 595.713 79.4449 595.953 79.3449 596.16C79.2516 596.373 79.0949 596.55 78.8749 596.69C78.6549 596.83 78.3716 596.937 78.0249 597.01C77.6783 597.083 77.2549 597.12 76.7549 597.12C76.3149 597.12 75.9416 597.09 75.6349 597.03C75.3283 596.977 75.0749 596.897 74.8749 596.79C74.6816 596.69 74.5416 596.563 74.4549 596.41C74.3683 596.257 74.3249 596.083 74.3249 595.89C74.3249 595.597 74.4049 595.367 74.5649 595.2C74.7316 595.04 74.9616 594.937 75.2549 594.89V594.78C75.0416 594.727 74.8749 594.623 74.7549 594.47C74.6416 594.31 74.5849 594.123 74.5849 593.91C74.5849 593.777 74.6116 593.66 74.6649 593.56C74.7183 593.453 74.7883 593.363 74.8749 593.29C74.9683 593.217 75.0716 593.157 75.1849 593.11C75.2983 593.057 75.4183 593.017 75.5449 592.99V592.95C75.2249 592.803 74.9849 592.6 74.8249 592.34C74.6716 592.08 74.5949 591.777 74.5949 591.43C74.5949 590.897 74.7783 590.47 75.1449 590.15C75.5116 589.823 76.0483 589.66 76.7549 589.66C76.9149 589.66 77.0716 589.67 77.2249 589.69C77.3849 589.71 77.5316 589.743 77.6649 589.79V589.62C77.6649 589.113 77.9116 588.86 78.4049 588.86H79.2149V589.84H78.1049V589.98C78.3783 590.133 78.5816 590.333 78.7149 590.58C78.8483 590.827 78.9149 591.11 78.9149 591.43C78.9149 591.957 78.7316 592.38 78.3649 592.7C78.0049 593.02 77.4683 593.18 76.7549 593.18C76.4483 593.18 76.1816 593.15 75.9549 593.09C75.8549 593.137 75.7683 593.2 75.6949 593.28C75.6216 593.353 75.5849 593.447 75.5849 593.56C75.5849 593.82 75.8116 593.95 76.2649 593.95H77.6649C78.3049 593.95 78.7683 594.083 79.0549 594.35C79.3483 594.61 79.4949 594.973 79.4949 595.44ZM78.2949 595.59C78.2949 595.423 78.2283 595.293 78.0949 595.2C77.9616 595.107 77.7316 595.06 77.4049 595.06H75.6249C75.4449 595.193 75.3549 595.373 75.3549 595.6C75.3549 595.8 75.4383 595.957 75.6049 596.07C75.7716 596.183 76.0549 596.24 76.4549 596.24H77.0949C77.5149 596.24 77.8183 596.187 78.0049 596.08C78.1983 595.973 78.2949 595.81 78.2949 595.59ZM76.7549 592.31C77.3816 592.31 77.6949 592.043 77.6949 591.51V591.34C77.6949 590.807 77.3816 590.54 76.7549 590.54C76.1283 590.54 75.8149 590.807 75.8149 591.34V591.51C75.8149 592.043 76.1283 592.31 76.7549 592.31ZM81.0623 595.11C80.7889 595.11 80.5856 595.043 80.4523 594.91C80.3256 594.77 80.2623 594.593 80.2623 594.38V594.2C80.2623 593.987 80.3256 593.81 80.4523 593.67C80.5856 593.53 80.7889 593.46 81.0623 593.46C81.3423 593.46 81.5456 593.53 81.6723 593.67C81.7989 593.81 81.8623 593.987 81.8623 594.2V594.38C81.8623 594.593 81.7989 594.77 81.6723 594.91C81.5456 595.043 81.3423 595.11 81.0623 595.11ZM83.4705 595V593.93H85.3905V588.97H85.3005L83.7805 590.77L82.9605 590.08L84.6905 588.02H86.6805V593.93H88.2805V595H83.4705ZM93.7066 589.16H90.5666L90.4066 591.5H90.4766C90.55 591.353 90.63 591.217 90.7166 591.09C90.8033 590.963 90.9033 590.857 91.0166 590.77C91.13 590.683 91.26 590.617 91.4066 590.57C91.56 590.517 91.7433 590.49 91.9566 590.49C92.2566 590.49 92.5366 590.54 92.7966 590.64C93.0566 590.74 93.28 590.887 93.4666 591.08C93.66 591.267 93.81 591.497 93.9166 591.77C94.03 592.043 94.0866 592.353 94.0866 592.7C94.0866 593.053 94.03 593.377 93.9166 593.67C93.8033 593.963 93.6366 594.22 93.4166 594.44C93.1966 594.653 92.9266 594.82 92.6066 594.94C92.2866 595.06 91.92 595.12 91.5066 595.12C91.1866 595.12 90.9 595.083 90.6466 595.01C90.3933 594.943 90.17 594.85 89.9766 594.73C89.7833 594.61 89.6166 594.473 89.4766 594.32C89.3366 594.16 89.2133 593.993 89.1066 593.82L90.0666 593.08C90.1466 593.213 90.23 593.34 90.3166 593.46C90.4033 593.573 90.5033 593.673 90.6166 593.76C90.7366 593.847 90.8666 593.917 91.0066 593.97C91.1533 594.017 91.3233 594.04 91.5166 594.04C91.91 594.04 92.2066 593.93 92.4066 593.71C92.6133 593.49 92.7166 593.19 92.7166 592.81V592.73C92.7166 592.37 92.6133 592.087 92.4066 591.88C92.2 591.673 91.9133 591.57 91.5466 591.57C91.26 591.57 91.0266 591.627 90.8466 591.74C90.6666 591.847 90.5233 591.963 90.4166 592.09L89.3366 591.94L89.5966 588.02H93.7066V589.16Z" fill="white"/>
    <defs>
        <filter id="filter0_d" x="0" y="0.000488281" width="156" height="808" filterUnits="userSpaceOnUse" color-interpolation-filters="sRGB">
            <feFlood flood-opacity="0" result="BackgroundImageFix"/>
            <feColorMatrix in="SourceAlpha" type="matrix" values="0 0 0 0 0 0 0 0 0 0 0 0 0 0 0 0 0 0 127 0" result="hardAlpha"/>
            <feOffset dy="44"/>
            <feGaussianBlur stdDeviation="28"/>
            <feColorMatrix type="matrix" values="0 0 0 0 0.115205 0 0 0 0 0.0178767 0 0 0 0 0.29 0 0 0 0.4 0"/>
            <feBlend mode="normal" in2="BackgroundImageFix" result="effect1_dropShadow"/>
            <feBlend mode="normal" in="SourceGraphic" in2="effect1_dropShadow" result="shape"/>
        </filter>
    </defs>
</svg>
