<svg width="988" height="767" viewBox="0 0 988 767" fill="none" xmlns="http://www.w3.org/2000/svg">
    <g opacity="0.1">
        <path fill-rule="evenodd" clip-rule="evenodd" d="M0.81665 0.816406H987.183V769.183H607.541C605.628 830.233 555.536 879.137 494.022 879.137C432.507 879.137 382.415 830.233 380.502 769.183H0.81665V0.816406ZM384.871 769.183C386.782 827.821 434.919 874.771 494.022 874.771C553.124 874.771 601.261 827.821 603.172 769.183H503.341C501.887 772.911 498.257 775.559 494.022 775.559C489.787 775.559 486.158 772.911 484.703 769.183H384.871ZM489.717 769.183C490.752 770.41 492.299 771.192 494.022 771.192C495.745 771.192 497.293 770.41 498.327 769.183H489.717ZM982.817 763.299V5.1832H676.895V150.003H577.84C577.784 150.059 577.724 150.118 577.66 150.181C577.099 150.732 576.271 151.521 575.189 152.494C573.024 154.439 569.836 157.12 565.714 160.094C557.476 166.039 545.474 173.18 530.426 177.944C500.339 187.469 458.353 187.393 410.366 150.003H311.121V5.1832H59.9513C61.1956 19.1327 58.5651 29.873 53.7072 38.1011C48.631 46.6988 41.2348 52.3649 33.7281 56.0937C26.231 59.8177 18.5581 61.6438 12.7897 62.5436C9.89862 62.9946 7.46807 63.2156 5.75271 63.324C5.55322 63.3366 5.36333 63.3477 5.18344 63.3574V763.299H380.468C381.673 701.617 432.051 651.986 494.022 651.986C555.992 651.986 606.37 701.617 607.575 763.299H982.817ZM603.208 763.299C602.003 704.029 553.58 656.352 494.022 656.352C434.463 656.352 386.04 704.029 384.836 763.299H484.281C485.301 758.877 489.249 755.564 494.022 755.564C498.756 755.564 502.733 758.873 503.761 763.299H603.208ZM5.18344 58.9837C5.27865 58.9782 5.37668 58.9722 5.47746 58.9659C7.08099 58.8646 9.37702 58.6564 12.1167 58.229C17.6099 57.3721 24.8154 55.645 31.7855 52.1828C38.7461 48.7252 45.406 43.572 49.9468 35.881C54.315 28.4824 56.8267 18.5594 55.5662 5.1832H5.18344V58.9837ZM315.487 5.28091V145.636H672.528V5.28091H600.983V86.0301H387.028V5.28091H315.487ZM391.394 5.28091V81.6633H596.616V5.28091H391.394ZM417.599 150.003C462.493 183.021 501.289 182.588 529.108 173.781C543.607 169.191 555.195 162.301 563.159 156.553C566.622 154.054 569.394 151.775 571.416 150.003H417.599ZM922.299 5.49855C922.299 5.49855 922.299 5.49582 924.482 5.50721C926.666 5.5186 926.666 5.51732 926.666 5.51732V5.54643C926.666 5.57022 926.666 5.60835 926.666 5.66033C926.667 5.76431 926.67 5.92366 926.675 6.13447C926.687 6.55616 926.711 7.18329 926.761 7.98463C926.862 9.58816 927.071 11.8842 927.498 14.6239C928.355 20.1171 930.082 27.3226 933.544 34.2927C937.002 41.2533 942.155 47.9132 949.846 52.4541C957.519 56.9842 967.907 59.5177 982.046 57.9176L982.537 62.2567C967.612 63.9457 956.242 61.3012 947.626 56.2144C939.028 51.1382 933.362 43.742 929.633 36.2353C925.909 28.7382 924.083 21.0653 923.183 15.2969C922.732 12.4058 922.511 9.97524 922.403 8.25988C922.349 7.40177 922.323 6.72138 922.31 6.25041C922.304 6.01489 922.301 5.83163 922.3 5.70457C922.299 5.64104 922.299 5.59155 922.299 5.5566V5.50268L922.299 5.49855Z" fill="url(#paint0_linear)"/>
    </g>
    <defs>
        <linearGradient id="paint0_linear" x1="494" y1="0.816406" x2="494" y2="766.5" gradientUnits="userSpaceOnUse">
            <stop stop-color="white"/>
            <stop offset="1" stop-color="white" stop-opacity="0"/>
        </linearGradient>
    </defs>
</svg>
